<svg xmlns="http://www.w3.org/2000/svg" width="646.306" height="13.542"><path style="line-height:normal;font-variant-ligatures:normal;font-variant-position:normal;font-variant-caps:normal;font-variant-numeric:normal;font-variant-alternates:normal;font-feature-settings:normal;text-indent:0;text-align:start;text-decoration-line:none;text-decoration-style:solid;text-decoration-color:#000;text-transform:none;text-orientation:mixed;white-space:normal;shape-padding:0;isolation:auto;mix-blend-mode:normal;solid-color:#000;solid-opacity:1" d="M105.506.076c16.177-.282 31.159.232 43.03 1.358 11.87 1.127 20.68 2.915 24.288 5 7.137 4.124 13.83 4.902 23.25 2.74 4.114-.944 11.09-2.312 15.479-3.037 4.412-.73 10.934-2.06 14.527-2.966 3.826-.964 15.874-1.49 29.434-1.5 13.56-.009 28.703.478 38.955 1.464 40.988 3.941 93.614 4.12 130.05.436 4.341-.44 10.57 0 13.68.94 16.017 4.847 51.423 6.164 81.834 3.095 9.04-.913 29.976-1.571 46.465-1.457 21.7.149 33.606-.455 42.992-2.194 12.343-2.287 13.125-2.274 20.823.574 4.458 1.65 9.822 3.191 12.074 3.44 1.036.115 2.028.432 2.76.83.365.199.666.42.865.622.198.201.272.39.27.378.025.121.052.003-.04.123-.092.121-.358.32-.758.46-.8.281-2.109.389-3.72.288-3.224-.2-7.689-1.202-12.196-2.935-7.443-2.861-8.56-2.907-20.06-.658-8.738 1.708-20.196 2.292-42.006 2.127-16.511-.124-37.651.555-47.035 1.515-30.71 3.138-67.024 1.754-83.108-3.113-3.309-1.002-9.284-1.418-13.441-.959-33.824 3.74-88.901 3.557-130.387-.432-10.107-.972-24.698-1.453-37.853-1.449-13.155.005-24.82.483-29.25 1.482-3.841.866-10.594 2.22-14.987 3.01-4.407.792-10.704 2.077-14.017 2.86-10.012 2.368-18.405 1.739-23.22-1.565-7.333-5.03-19.257-6.37-58.2-6.808l-59.664-.67c-6.894-.077-13.284.032-18.387.291-5.103.26-8.892.653-10.713 1.193-3.391 1.006-10.647 1.395-16.947 1.229-3.15-.083-6.07-.303-8.164-.637A12.876 12.876 0 010 4.646l.041-.015c.72-.22 1.783-.443 3.111-.655C5.808 3.55 9.53 3.172 13.805 2.92c4.078-.239 7.924-.59 10.841-.961 1.46-.186 2.685-.378 3.598-.565.457-.094.836-.186 1.133-.28.297-.093.482-.132.713-.351-.09.085-.018.014.086-.018a4.22 4.22 0 01.459-.1 20.73 20.73 0 011.648-.191C33.675.335 35.62.239 37.97.169 42.666.03 48.982-.002 55.775.11c13.602.223 35.975.207 49.73-.033z" color="#000" font-weight="400" font-family="sans-serif" overflow="visible"/></svg>