<?xml version="1.0" encoding="UTF-8" standalone="no"?>
<!-- Created with Inkscape (http://www.inkscape.org/) -->

<svg
   xmlns:dc="http://purl.org/dc/elements/1.1/"
   xmlns:cc="http://creativecommons.org/ns#"
   xmlns:rdf="http://www.w3.org/1999/02/22-rdf-syntax-ns#"
   xmlns:svg="http://www.w3.org/2000/svg"
   xmlns="http://www.w3.org/2000/svg"
   xmlns:sodipodi="http://sodipodi.sourceforge.net/DTD/sodipodi-0.dtd"
   xmlns:inkscape="http://www.inkscape.org/namespaces/inkscape"
   version="1.1"
   id="svg83"
   width="638.66986"
   height="21.495644"
   viewBox="0 0 638.66986 21.495644"
   sodipodi:docname="traits3.svg"
   inkscape:version="0.92.2 5c3e80d, 2017-08-06">
  <metadata
     id="metadata89">
    <rdf:RDF>
      <cc:Work
         rdf:about="">
        <dc:format>image/svg+xml</dc:format>
        <dc:type
           rdf:resource="http://purl.org/dc/dcmitype/StillImage" />
        <dc:title />
      </cc:Work>
    </rdf:RDF>
  </metadata>
  <defs
     id="defs87" />
  <sodipodi:namedview
     pagecolor="#ffffff"
     bordercolor="#666666"
     borderopacity="1"
     objecttolerance="10"
     gridtolerance="10"
     guidetolerance="10"
     inkscape:pageopacity="0"
     inkscape:pageshadow="2"
     inkscape:window-width="1210"
     inkscape:window-height="754"
     id="namedview85"
     showgrid="false"
     inkscape:zoom="1.0550534"
     inkscape:cx="264.3806"
     inkscape:cy="17.88167"
     inkscape:window-x="0"
     inkscape:window-y="0"
     inkscape:window-maximized="0"
     inkscape:current-layer="svg83" />
  <path
     style="color:#000000;font-style:normal;font-variant:normal;font-weight:normal;font-stretch:normal;font-size:medium;line-height:normal;font-family:sans-serif;font-variant-ligatures:normal;font-variant-position:normal;font-variant-caps:normal;font-variant-numeric:normal;font-variant-alternates:normal;font-feature-settings:normal;text-indent:0;text-align:start;text-decoration:none;text-decoration-line:none;text-decoration-style:solid;text-decoration-color:#000000;letter-spacing:normal;word-spacing:normal;text-transform:none;writing-mode:lr-tb;direction:ltr;text-orientation:mixed;dominant-baseline:auto;baseline-shift:baseline;text-anchor:start;white-space:normal;shape-padding:0;clip-rule:nonzero;display:inline;overflow:visible;visibility:visible;opacity:1;isolation:auto;mix-blend-mode:normal;color-interpolation:sRGB;color-interpolation-filters:linearRGB;solid-color:#000000;solid-opacity:1;vector-effect:none;fill-opacity:1;fill-rule:nonzero;stroke:none;stroke-width:1.13261664;stroke-linecap:butt;stroke-linejoin:miter;stroke-miterlimit:4;stroke-dasharray:none;stroke-dashoffset:0;stroke-opacity:1;color-rendering:auto;image-rendering:auto;shape-rendering:auto;text-rendering:auto;enable-background:accumulate"
     d="M 603.88472,6.1303011e-4 C 607.20613,-0.01498697 609.73594,0.26723303 612.32808,0.83744303 616.10111,1.667443 621.58793,2.340753 624.62886,2.340753 c 1.46603,0 2.87095,0.14346 3.92969,0.36831 0.52937,0.11238 0.97348,0.2457 1.28125,0.38083 0.30777,0.13515 0.45996,0.34606 0.4043,0.23051 0.30855,0.64047 0.84626,0.98316 1.44726,1.21518 0.601,0.23203 1.29222,0.33814 1.98438,0.33574 0.69216,-0.003 1.38339,-0.11468 1.98437,-0.35077 0.60099,-0.23605 1.1368,-0.58233 1.44532,-1.2227 0.17877,-0.37107 0.33335,-0.47554 0.4414,-0.50109 0.10805,-0.0255 0.23225,0.009 0.40235,0.19042 0.34019,0.36374 0.7207,1.34107 0.7207,2.63578 0,0.47606 -0.0455,0.79689 -0.11914,0.99219 -0.0736,0.1953 -0.16142,0.3134 -0.40234,0.44849 -0.48184,0.27014 -1.56918,0.40839 -3.41993,0.40839 -1.19056,0 -2.34518,-0.14379 -3.2207,-0.3658 -0.43776,-0.11097 -0.8068,-0.24237 -1.0625,-0.37332 -0.25569,-0.13096 -0.37982,-0.30323 -0.34961,-0.24053 -0.22562,-0.46832 -0.54095,-0.59515 -0.93164,-0.76669 -0.39069,-0.17154 -0.87595,-0.31336 -1.44141,-0.43345 -1.13091,-0.24017 -2.57743,-0.38585 -4.09375,-0.38585 -2.92431,0 -8.41842,-0.66473 -12.10546,-1.47072 -5.24518,-1.14661 -10.1443,-1.11521 -20.89844,0.11019 -13.30689,1.5164 -22.93104,1.72192 -48.0918,1.02726 -4.72173,-0.13036 -7.58919,-0.12482 -9.53125,0.16286 -1.94206,0.28765 -3.00914,0.91267 -3.89258,1.93927 -1.23748,1.43798 -3.3225,2.07957 -7.58007,2.07957 -3.81658,0 -7.55851,0.88691 -10.13477,2.44787 -1.75052,1.06065 -5.34438,2.12891 -10.77734,3.11686 -5.43297,0.98796 -12.72493,1.92106 -21.98438,2.81369 -4.43833,0.42787 -10.61363,1.67033 -13.8418,2.79865 -4.75814,1.66307 -9.9253,1.86667 -32.85742,1.23021 -18.63481,-0.51721 -29.62901,-1.39716 -34.66211,-2.73351 -5.25124,-1.39428 -18.27181,-2.47511 -37.58984,-3.24214 -19.31803,-0.76702 -44.88717,-1.2031 -75.05078,-1.24021 -38.78297,-0.0477 -50.24317,-0.47953 -54.37696,-1.84657 -4.60774,-1.52377 -11.51301,-1.637 -39.0957,-0.76168 -9.21435,0.29242 -17.92837,0.63391 -24.54687,0.9496 -3.30926,0.15784 -6.09451,0.31071 -8.15821,0.44597 -2.0637,0.13527 -3.34654,0.23771 -3.86914,0.35579 -0.31001,0.07 -1.68031,0.21147 -3.71094,0.3633 -2.03062,0.15182 -4.77794,0.32792 -8.03906,0.51613 -6.52224,0.37641 -15.10646,0.80272 -24.17968,1.18761 -9.07962,0.38516 -18.2911,0.93879 -25.818359,1.51834 -7.52727,0.57955 -13.34363,1.17834 -15.74805,1.68621 -14.00181,2.95747 -22.93746,3.25615 -27.24024,1.16255 l -0.67769,-0.33068 v 0.14531 c -2.90463,-1.25212 -5.98594,-1.56255 -11.80664,-0.99218 -7.368857,0.72207 -8.908289,0.46552 -15.796875,-2.64582 -4.310514,-1.94691 -11.05011,-3.85339 -15.126953,-4.27189 C 4.458752,11.224903 2.661276,10.894803 1.384766,10.536273 0.78147,10.366823 0.318361,10.189413 0,10.030163 c 0.0069,-0.003 0.0066,-0.005 0.01367,-0.008 0.378218,-0.1456 0.983112,-0.27288 1.726562,-0.36079 1.486901,-0.17583 3.541822,-0.20551 5.726563,-0.10276 4.369483,0.20558 9.330474,0.98663 11.283203,2.00191 8.125699,4.22474 11.062393,4.84744 19.109373,4.0514 5.89915,-0.58356 9.14038,-0.28518 12.26953,1.08238 2.47638,1.08228 6.93866,1.40191 12.16407,1.15254 5.2254,-0.24937 11.17793,-1.09865 16.47656,-2.48546 1.29049,-0.33777 4.76158,-0.77686 9.19531,-1.17258 4.43374,-0.39572 9.86605,-0.76102 15.222659,-1.0022 10.72918,-0.4831 27.15233,-1.39447 36.50781,-2.02696 9.33542,-0.63112 32.51683,-1.6714 51.48828,-2.31008 28.69236,-0.96595 35.38922,-0.84011 39.82031,0.63389 4.51736,1.50269 15.68444,1.84874 54.625,1.89668 30.17559,0.0371 55.73904,0.47099 75.03711,1.23772 19.29808,0.76672 32.37754,1.8835 37.40235,3.21957 2.44796,0.65091 7.46706,1.22118 13.74023,1.70375 6.27317,0.48257 13.77458,0.86757 21.07617,1.10743 7.30159,0.23986 14.4023,0.33486 19.87696,0.23803 2.73732,-0.0484 5.06781,-0.14427 6.82031,-0.29565 0.87625,-0.0757 1.60632,-0.16407 2.17969,-0.2706 0.57337,-0.10647 0.96519,-0.19589 1.29297,-0.42092 0.43594,-0.29929 1.41276,-0.68882 2.88867,-1.07988 1.47591,-0.39105 3.46471,-0.80411 6.0039,-1.24273 5.0784,-0.87724 12.36206,-1.86082 22.21485,-3.01163 8.47379,-0.98972 13.67976,-2.20964 16.39062,-3.98376 2.39089,-1.5645 5.64835,-2.39255 9.61719,-2.39255 4.61146,0 6.97845,-0.69512 9.16992,-2.77359 1.26227,-1.19717 2.03566,-1.75362 3.94922,-1.9994 1.91356,-0.24578 4.94432,-0.11365 10.4375,0.23552 18.7565,1.19231 30.79486,1.01122 46.95898,-0.70905997 5.76497,-0.61354 9.87782,-0.92645 13.19922,-0.94206999989 z"
     id="path190"
     inkscape:connector-curvature="0" />
</svg>
