<svg xmlns="http://www.w3.org/2000/svg" width="926.621" height="400.621" viewBox="0 0 245.168 105.998" preserveAspectRatio="none"><path d="M119.512 105.947c-.148-.153-22.688-.642-45.508-.988-14.829-.224-20.921-.574-32.544-1.87-11.824-1.318-26.589-9.58-33.479-18.732-2.916-3.874-5.413-9.406-6.198-13.735C1.3 67.958.488 61.408.15 57.45c-.366-4.278-.054-10.813.855-17.926 1.24-9.696 2.689-12.273 10.472-18.617 1.627-1.326 3.83-2.969 4.895-3.65 1.065-.682 4.08-2.62 6.7-4.306 8.766-5.645 13.13-8.244 14.507-8.639 1.547-.443 7.13-1.547 10.867-2.148C59.383.404 71.473-.361 80.089.162c7.857.477 19.03 1.32 23.019 1.738 2.37.248 10.07.47 22.886.66 18.415.272 24.337.421 41.804 1.055 15.525.563 20.437.816 23.244 1.197 12.168 1.652 23.433 4.98 34.832 10.291l3.57 1.664 6.953 10.627 6.952 10.626.532 2.578c1.709 8.284 1.717 17.053.022 24.178-1.48 6.224-5.075 13.494-9.348 18.906-1.298 1.642-3.443 2.856-10.058 5.69-10.365 4.44-22.474 7.451-33.944 8.44-3.961.341-7.377.912-20.77 3.471-20.964 4.006-24.38 4.407-39.555 4.64-5.821.089-10.643.1-10.716.024z" fill="#ed2123"/></svg>