<?xml version="1.0" encoding="UTF-8" standalone="no"?>
<!-- Created with Inkscape (http://www.inkscape.org/) -->

<svg
   xmlns:dc="http://purl.org/dc/elements/1.1/"
   xmlns:cc="http://creativecommons.org/ns#"
   xmlns:rdf="http://www.w3.org/1999/02/22-rdf-syntax-ns#"
   xmlns:svg="http://www.w3.org/2000/svg"
   xmlns="http://www.w3.org/2000/svg"
   xmlns:sodipodi="http://sodipodi.sourceforge.net/DTD/sodipodi-0.dtd"
   xmlns:inkscape="http://www.inkscape.org/namespaces/inkscape"
   width="291.83542mm"
   height="94.98542mm"
   viewBox="0 0 291.83542 94.98542"
   preserveAspectRatio="none"
   version="1.1"
   id="svg448"
   inkscape:version="0.92.2 5c3e80d, 2017-08-06"
   sodipodi:docname="bulle7.svg">
  <metadata
     id="metadata493">
    <rdf:RDF>
      <cc:Work
         rdf:about="">
        <dc:format>image/svg+xml</dc:format>
        <dc:type
           rdf:resource="http://purl.org/dc/dcmitype/StillImage" />
      </cc:Work>
    </rdf:RDF>
  </metadata>
  <defs
     id="defs491" />
  <sodipodi:namedview
     pagecolor="#ffffff"
     bordercolor="#666666"
     borderopacity="1"
     objecttolerance="10"
     gridtolerance="10"
     guidetolerance="10"
     inkscape:pageopacity="0"
     inkscape:pageshadow="2"
     inkscape:window-width="1040"
     inkscape:window-height="730"
     id="namedview489"
     showgrid="false"
     inkscape:zoom="0.37805983"
     inkscape:cx="551.5"
     inkscape:cy="179.50001"
     inkscape:window-x="0"
     inkscape:window-y="0"
     inkscape:window-maximized="0"
     inkscape:current-layer="svg448" />
  <path
     style="fill:#ed2123;stroke-width:0.26458335"
     d="m 245.89563,94.451532 c -15.47865,-1.81462 -29.21499,-4.86918 -42.33333,-9.4137 -19.56753,-6.77867 -23.58755,-7.8423 -34.39584,-9.10057 -14.20815,-1.65407 -31.58671,-1.28734 -75.935417,1.60238 -27.568885,1.79637 -40.507714,1.72588 -52.519792,-0.28613 -7.626689,-1.27747 -14.976183,-3.60835 -20.98179,-6.65435 -5.291782,-2.68395 -9.098668,-5.3965 -13.4286745,-9.56843 -2.0973542,-2.02078 -2.4178027,-2.475 -4.0509548,-5.74199 -2.09804057,-4.19696 -2.40950445,-5.56689 -2.19014243,-9.63304 0.26670944,-4.94379 1.31450913,-10.49243 3.39302273,-17.9678 l 1.0968686,-3.94489 2.1396891,-2.16216 c 3.6299793,-3.6681 4.3021833,-3.91865 23.0417723,-8.58831 5.820834,-1.45048 12.369271,-3.1179299 14.552084,-3.7054399 9.745826,-2.62315 17.77238,-3.72837 30.924058,-4.25812 7.80332,-0.31432 11.034679,-0.15118 29.004066,1.46429 11.95832,1.07507 21.69765,1.56983 24.1188,1.22525 0.92294,-0.13136 4.35699,-1.07836 7.6312,-2.10444 6.51616,-2.04205 7.80273,-2.29939 13.49376,-2.69899 2.11005,-0.14816 8.42036,-0.67979 14.02291,-1.18141 20.94605,-1.87536002 30.09395,-1.87223002 48.41875,0.0166 20.51735,2.11483 35.38756,4.91829 44.84688,8.4549299 16.85173,6.30051 29.51641,20.05581 33.8609,36.7769 1.84679,7.10789 1.21412,13.57996 -1.90633,19.50126 -3.9775,7.54767 -19.34895,22.91612 -26.54529,26.54014 -4.14717,2.08848 -7.84943,2.41369 -16.2572,1.42802 z"
     id="path461"
     inkscape:connector-curvature="0" />
</svg>
