<?xml version="1.0" encoding="UTF-8" standalone="no"?>
<!-- Created with Inkscape (http://www.inkscape.org/) -->

<svg
   xmlns:dc="http://purl.org/dc/elements/1.1/"
   xmlns:cc="http://creativecommons.org/ns#"
   xmlns:rdf="http://www.w3.org/1999/02/22-rdf-syntax-ns#"
   xmlns:svg="http://www.w3.org/2000/svg"
   xmlns="http://www.w3.org/2000/svg"
   xmlns:sodipodi="http://sodipodi.sourceforge.net/DTD/sodipodi-0.dtd"
   xmlns:inkscape="http://www.inkscape.org/namespaces/inkscape"
   width="254.52916mm"
   height="75.40625mm"
   viewBox="0 0 254.52916 75.40625"
   preserveAspectRatio="none"
   version="1.1"
   id="svg604"
   inkscape:version="0.92.2 5c3e80d, 2017-08-06"
   sodipodi:docname="bulle2.svg">
  <defs
     id="defs598" />
  <sodipodi:namedview
     id="base"
     pagecolor="#ffffff"
     bordercolor="#666666"
     borderopacity="1.0"
     inkscape:pageopacity="0.0"
     inkscape:pageshadow="2"
     inkscape:zoom="0.35"
     inkscape:cx="1085.7143"
     inkscape:cy="-582.85714"
     inkscape:document-units="mm"
     inkscape:current-layer="svg604"
     showgrid="false"
     inkscape:window-width="1392"
     inkscape:window-height="855"
     inkscape:window-x="0"
     inkscape:window-y="1"
     inkscape:window-maximized="1" />
  <metadata
     id="metadata601">
    <rdf:RDF>
      <cc:Work
         rdf:about="">
        <dc:format>image/svg+xml</dc:format>
        <dc:type
           rdf:resource="http://purl.org/dc/dcmitype/StillImage" />
        <dc:title />
      </cc:Work>
    </rdf:RDF>
  </metadata>
  <path
     style="fill:#ed2123;stroke-width:0.26458332"
     d="m 98.420287,75.356963 c -7.604474,-0.33114 -12.967488,-0.88362 -22.743794,-2.343 -2.468147,-0.36843 -8.183147,-1.03186 -12.7,-1.47428 -28.614136,-2.8027 -37.550972,-4.34315 -44.556106,-7.68017 -5.581856,-2.65901 -8.94655,-5.9134 -11.6128143,-11.23209 C 6.0302115,51.076733 2.649162,41.631873 0.88789021,36.090963 0.10129117,33.616353 0.00429563,32.980423 5.28428e-5,30.270133 -0.00574716,26.565233 0.46409283,24.912673 2.3063338,22.158293 c 2.7368395,-4.09191 6.5860422,-6.6745 14.6159422,-9.80643 5.611226,-2.18857 10.952426,-3.8785096 16.87981,-5.3407296 7.707568,-1.90136 29.591433,-5.60627 39.291161,-6.65194996 4.003286,-0.43157 14.003998,-0.18262 20.961415,0.5218 5.924256,0.59981996 12.581108,0.70265996 17.991668,0.27794996 2.82806,-0.22198996 4.38077,-0.16427996 10.71563,0.3983 12.79203,1.13603 16.95048,1.42062 36.77708,2.51692 25.95967,1.43544 29.31558,1.70678 44.45,3.59405 13.27839,1.65581 26.18238,3.7581396 31.72558,5.1687496 3.62027,0.92127 6.69137,2.54222 12.19185,6.43497 3.39948,2.40586 4.49834,3.52104 5.44846,5.52942 0.64839,1.37056 0.77226,1.96451 0.77244,3.70373 1.8e-4,1.83503 -0.15231,2.48413 -1.33638,5.68854 -2.53855,6.86999 -7.08001,15.11418 -11.7277,21.28952 -3.21254,4.26846 -7.82034,7.7714 -11.93884,9.07611 -3.46273,1.09698 -10.64952,2.40547 -22.33113,4.06579 -12.71007,1.80651 -16.10546,2.17776 -26.61678,2.91025 -31.70748,2.20956 -42.90575,2.92684 -53.84271,3.44873 -5.9823,0.28547 -24.30175,0.53023 -27.913543,0.37295 z"
     id="path641"
     inkscape:connector-curvature="0" />
</svg>
