<?xml version="1.0" encoding="UTF-8" standalone="no"?>
<!-- Created with Inkscape (http://www.inkscape.org/) -->

<svg
   xmlns:dc="http://purl.org/dc/elements/1.1/"
   xmlns:cc="http://creativecommons.org/ns#"
   xmlns:rdf="http://www.w3.org/1999/02/22-rdf-syntax-ns#"
   xmlns:svg="http://www.w3.org/2000/svg"
   xmlns="http://www.w3.org/2000/svg"
   xmlns:sodipodi="http://sodipodi.sourceforge.net/DTD/sodipodi-0.dtd"
   xmlns:inkscape="http://www.inkscape.org/namespaces/inkscape"
   width="258.97083mm"
   height="104.42592mm"
   viewBox="0 0 258.97083 104.42592"
   preserveAspectRatio="none"
   version="1.1"
   id="svg576"
   inkscape:version="0.92.2 5c3e80d, 2017-08-06"
   sodipodi:docname="bulle8.svg">
  <metadata
     id="metadata667">
    <rdf:RDF>
      <cc:Work
         rdf:about="">
        <dc:format>image/svg+xml</dc:format>
        <dc:type
           rdf:resource="http://purl.org/dc/dcmitype/StillImage" />
      </cc:Work>
    </rdf:RDF>
  </metadata>
  <defs
     id="defs665" />
  <sodipodi:namedview
     pagecolor="#ffffff"
     bordercolor="#666666"
     borderopacity="1"
     objecttolerance="10"
     gridtolerance="10"
     guidetolerance="10"
     inkscape:pageopacity="0"
     inkscape:pageshadow="2"
     inkscape:window-width="1049"
     inkscape:window-height="657"
     id="namedview663"
     showgrid="false"
     inkscape:zoom="0.42603737"
     inkscape:cx="-73.937175"
     inkscape:cy="103.45184"
     inkscape:window-x="0"
     inkscape:window-y="0"
     inkscape:window-maximized="0"
     inkscape:current-layer="svg576" />
  <path
     style="fill:#ed2123;stroke-width:0.26458332"
     d="m 154.21241,104.19061 c -2.11006,-0.0984 -4.49131,-0.31359 -5.29167,-0.47813 -1.50358,-0.30911 -15.77607,-1.11172 -29.89791,-1.68129 -4.58675,-0.18499 -17.26276,-0.3299 -29.368753,-0.33573 -18.14147,-0.009 -22.24032,0.061 -27.64896,0.47024 -14.00375,1.05966 -20.783,0.56847 -32.54375,-2.357949 -12.41762,-3.08986 -19.86578,-6.41262 -24.43302,-10.900014 -2.60755,-2.561966 -3.88016,-5.308455 -4.68642,-10.114008 -0.41697,-2.485273 -0.43297,-3.308627 -0.15418,-7.932483 0.41938,-6.955756 0.88323,-10.950744 2.28865,-19.711458 0.65366,-4.074584 1.42729,-8.897512 1.71918,-10.717615 1.29034,-8.045995 4.5392,-14.597118 9.90712,-19.977082 4.02954,-4.038584 7.43761,-6.351786 15.62325,-10.6041713 13.37738,-6.949454 19.27968,-8.3283352 38.89375,-9.086267 41.369093,-1.5985947 74.683173,-0.7128637 107.817713,2.86658 7.43356,0.803031 22.81809,3.265316 29.23645,4.67928 10.74874,2.3679463 20.37521,6.9588783 28.97188,13.8169073 4.90535,3.913268 6.75621,6.108401 9.52379,11.295284 0.77646,1.455209 2.211,3.89649 3.18787,5.42507 1.27287,1.991751 2.09286,3.678544 2.89395,5.953125 0.61481,1.745639 1.5088,3.828732 1.98666,4.629097 1.45448,2.436101 2.15041,3.982225 3.03686,6.746875 1.25504,3.914203 3.44756,13.457486 3.62844,15.793339 0.14984,1.934998 0.11221,2.130033 -0.76558,3.96875 -0.50774,1.063559 -1.49677,2.767182 -2.19784,3.785828 -0.70107,1.018645 -2.31237,3.399895 -3.58066,5.291666 -3.65814,5.456449 -9.11736,10.460417 -13.34859,12.235437 -1.51614,0.63603 -4.85535,1.27856 -7.93678,1.5272 -1.16416,0.0939 -6.22432,0.63254 -11.24479,1.19688 -5.02047,0.564349 -11.62844,1.215369 -14.68437,1.446709 -5.95581,0.45086 -17.8227,1.67657 -24.41794,2.52208 -3.42756,0.43941 -5.46711,0.51141 -13.36145,0.47169 -5.12405,-0.0258 -11.04285,-0.12741 -13.1529,-0.22584 z"
     id="path589"
     inkscape:connector-curvature="0" />
</svg>
