<svg xmlns="http://www.w3.org/2000/svg" width="185mm" height="57mm" viewBox="0 0 185 57" preserveAspectRatio="none"><path d="M64.65 56.838c-.917-.13-3.164-.651-4.995-1.156l-3.329-.92-12.355-.192c-6.795-.106-15.811-.23-20.036-.275-8.616-.092-10.703-.343-15.277-1.838-1.973-.645-3.037-1.146-3.52-1.659C2.448 47.943-.372 39.474.04 35.492c.204-1.974 4.239-14.106 5.678-17.074 1.223-2.522 3.663-5.453 7.69-9.239 3.347-3.146 5.511-4.77 8.343-6.258C24.422 1.516 26.92.649 29.516.226 32.483-.258 44.43.07 53.303.88c8.173.746 18.661 1.602 24.71 2.017 6.095.419 9.525.778 12.88 1.348 4.66.792 5.563 1.028 19.641 5.14 10.36 3.025 11.709 3.195 28.596 3.6 13.016.314 17.209.482 20.766.833 5.865.579 10.088 1.731 15.06 4.11 5.232 2.503 7.945 4.681 9.37 7.525.596 1.188.674 1.666.674 4.131 0 3.596-.456 6.725-1.07 7.346-.258.26-.55 1.05-.649 1.755-.403 2.88-1.803 4.692-4.889 6.33-3.992 2.121-6.67 2.82-12.713 3.316-4.783.393-6.732.755-15.115 2.805-8.744 2.14-10.679 2.433-17.349 2.635-7.562.229-13.546.577-25.367 1.476-5.638.43-12.795.968-15.903 1.198-6.517.481-24.833.745-27.296.393z" fill="#ed2123"/></svg>