<?xml version="1.0" encoding="UTF-8" standalone="no"?>
<!-- Created with Inkscape (http://www.inkscape.org/) -->

<svg
   xmlns:dc="http://purl.org/dc/elements/1.1/"
   xmlns:cc="http://creativecommons.org/ns#"
   xmlns:rdf="http://www.w3.org/1999/02/22-rdf-syntax-ns#"
   xmlns:svg="http://www.w3.org/2000/svg"
   xmlns="http://www.w3.org/2000/svg"
   xmlns:sodipodi="http://sodipodi.sourceforge.net/DTD/sodipodi-0.dtd"
   xmlns:inkscape="http://www.inkscape.org/namespaces/inkscape"
   width="245.16838mm"
   height="105.99752mm"
   viewBox="0 0 245.16838 105.99752"
   preserveAspectRatio="none"
   version="1.1"
   id="svg29"
   inkscape:version="0.92.2 5c3e80d, 2017-08-06"
   sodipodi:docname="bulle4.svg">
  <path
     style="fill:#ed2123;stroke-width:0.26458335"
     d="m 119.5119,105.94746 c -0.14758,-0.1533 -22.687519,-0.64282 -45.50833,-0.98835 -14.828475,-0.22451 -20.920665,-0.5746 -32.543751,-1.87016 -11.82352,-1.31789 -26.588785,-9.579199 -33.4784594,-18.731519 -2.9167357,-3.87463 -5.4130177,-9.4066 -6.1979307,-13.73513 -0.483076,-2.66401 -1.29551002,-9.214 -1.63379302,-13.17195 -0.36567,-4.27837 -0.05384,-10.81325 0.85542902,-17.92668 1.239328,-9.69558 2.688772,-12.27222 10.4723911,-18.61652 1.627044,-1.32618 3.829701,-2.96888 4.894792,-3.65044 1.065091,-0.68156 4.079654,-2.6192 6.699029,-4.30587 8.766885,-5.6451604 13.130541,-8.2433504 14.508108,-8.6383604 1.546465,-0.443436 7.130052,-1.547585 10.86662,-2.148858 10.936608,-1.75987496 23.026701,-2.52473796 31.642982,-2.00184896 7.856821,0.4768 19.030107,1.32038896 23.018753,1.73792596 2.37021,0.248118 10.06973,0.470048 22.88646,0.659677 18.41511,0.272458 24.33695,0.421989 41.80416,1.055581 15.52445,0.563123 20.4371,0.816153 23.24367,1.197163 12.16766,1.65187 23.43298,4.98032 34.83158,10.2913304 l 3.57107,1.6639 6.95237,10.62626 6.95238,10.62626 0.53183,2.57839 c 1.70854,8.28329 1.71646,17.05241 0.0218,24.17801 -1.48014,6.22375 -5.07502,13.49367 -9.34854,18.90554 -1.29705,1.64255 -3.44265,2.85653 -10.05751,5.69055 -10.36461,4.44053 -22.47352,7.45111 -33.94451,8.43946 -3.96046,0.34124 -7.37647,0.91216 -20.76979,3.471299 -20.96379,4.00567 -24.38025,4.40638 -39.55521,4.63931 -5.82083,0.0893 -10.64287,0.10061 -10.71563,0.025 z"
     id="path42"
     inkscape:connector-curvature="0" />
</svg>
