<svg xmlns="http://www.w3.org/2000/svg" width="1036.72" height="403.864" viewBox="0 0 274.299 106.856" preserveAspectRatio="none"><path d="M44.012 106.479c-9.511-1.296-23.256-4.989-29.434-7.909-5.615-2.654-9.442-6.13-11.59-10.531-1.954-4.002-3.103-7.28-2.979-21.197l.843-10.356 1.655-3.408c4.57-9.41 11.707-19.676 19.107-27.485C31.176 15.5 50.698 7.122 70.437 4.639c1.747-.22 6.092-.696 9.658-1.058 14.48-1.472 25.272-2.573 30.029-3.065C114.26.09 117.09-.002 126.13 0c25.342.006 45.674.997 70.513 3.435 4.365.428 9.842.904 12.17 1.058 17.54 1.156 31.01 5.286 45.39 13.918 6.231 3.741 9.764 6.344 10.559 7.78.362.655 2.656 5.4 5.097 10.543l4.439 9.352v2.763c0 7.465-1.565 14.554-4.618 20.915-3.025 6.304-5.25 9.069-11.848 14.719-6.208 5.316-9.963 7.922-12.506 8.677a127.11 127.11 0 00-4.434 1.446c-1.42.493-4.158 1.204-6.085 1.58-1.927.374-5.6 1.095-8.162 1.6-8.603 1.694-13.054 2.063-15.486 1.28-1.213-.39-1.577-.373-6.314.282-4.257.588-6.588.732-15.214.938-5.602.134-13.022.44-16.487.682-7.916.551-14.925.382-23.465-.568-8.374-.93-17.862-1.156-23.415-.555-2.183.236-10.723.963-18.977 1.616-17.217 1.363-18.456 1.495-32.22 3.436-5.603.79-11.556 1.562-13.23 1.714-4.19.38-14.628.303-17.826-.132z" fill="#ed2123"/></svg>