<svg xmlns="http://www.w3.org/2000/svg" width="940" height="355" viewBox="0 0 248.708 93.927" preserveAspectRatio="none"><path d="M110.738 93.66c-23.332-.967-58.474-4.976-70.264-8.015-9.656-2.489-16.021-5.74-21.462-10.963-5.474-5.254-7.6-9.759-10.13-21.478-1.61-7.452-1.676-7.67-4.308-14.155-1.24-3.056-2.599-6.568-3.02-7.805C-3.411 16.667 3.41 8.698 23.62 5.463c5.894-.944 10.715-1.252 21.769-1.394 11.197-.143 17.845.055 29.331.873 5.446.387 6.62.379 19.976-.143 45.062-1.76 57.644-2.298 84.702-3.623C200.766.129 215.237-.12 219.374.49c3.515.518 8.618 1.844 10.402 2.703 5.66 2.724 11.185 7.794 13.397 12.292.827 1.682 3.77 12.92 4.82 18.405.83 4.336.82 12.268-.02 15.683-2.746 11.164-10.904 19.371-25.977 26.131-29.146 13.073-70.01 19.668-111.258 17.957z" fill="#ed2123"/></svg>