<?xml version="1.0" encoding="UTF-8" standalone="no"?>
<!-- Created with Inkscape (http://www.inkscape.org/) -->

<svg
   xmlns:dc="http://purl.org/dc/elements/1.1/"
   xmlns:cc="http://creativecommons.org/ns#"
   xmlns:rdf="http://www.w3.org/1999/02/22-rdf-syntax-ns#"
   xmlns:svg="http://www.w3.org/2000/svg"
   xmlns="http://www.w3.org/2000/svg"
   xmlns:sodipodi="http://sodipodi.sourceforge.net/DTD/sodipodi-0.dtd"
   xmlns:inkscape="http://www.inkscape.org/namespaces/inkscape"
   width="248.70833mm"
   height="93.927086mm"
   viewBox="0 0 248.70833 93.927086"
   preserveAspectRatio="none"
   version="1.1"
   id="svg320"
   inkscape:version="0.92.2 5c3e80d, 2017-08-06"
   sodipodi:docname="bulle6.svg">
  <metadata
     id="metadata365">
    <rdf:RDF>
      <cc:Work
         rdf:about="">
        <dc:format>image/svg+xml</dc:format>
        <dc:type
           rdf:resource="http://purl.org/dc/dcmitype/StillImage" />
      </cc:Work>
    </rdf:RDF>
  </metadata>
  <defs
     id="defs363" />
  <sodipodi:namedview
     pagecolor="#ffffff"
     bordercolor="#666666"
     borderopacity="1"
     objecttolerance="10"
     gridtolerance="10"
     guidetolerance="10"
     inkscape:pageopacity="0"
     inkscape:pageshadow="2"
     inkscape:window-width="887"
     inkscape:window-height="658"
     id="namedview361"
     showgrid="false"
     inkscape:zoom="0.44361703"
     inkscape:cx="469.99999"
     inkscape:cy="87.332141"
     inkscape:window-x="0"
     inkscape:window-y="0"
     inkscape:window-maximized="0"
     inkscape:current-layer="svg320" />
  <path
     style="fill:#ed2123;stroke-width:0.26458335"
     d="M 110.73825,93.660647 C 87.406133,92.692667 52.264487,88.683617 40.473627,85.644667 30.818151,83.156097 24.45264,79.904737 19.011735,74.682427 13.537713,69.428327 11.412912,64.923127 8.8819229,53.204227 7.2725295,45.752477 7.2061675,45.534397 4.5744992,39.049017 3.334445,35.993087 1.9751747,32.480737 1.5538984,31.243807 -3.4108175,16.666697 3.4099103,8.6975773 23.619762,5.4627673 c 5.894594,-0.94349 10.71572,-1.25206 21.76898,-1.39329 11.196915,-0.14307 17.844933,0.0546 29.331239,0.87225 5.445882,0.38765 6.619782,0.37928 19.976042,-0.14229 45.062197,-1.75972 57.643957,-2.298 84.701607,-3.62375 21.36835,-1.04698996 35.83922,-1.29510996 39.97613,-0.68543996 3.51507,0.51802996 8.61842,1.84387996 10.40205,2.70244996 5.66016,2.72458 11.18563,7.7943697 13.39733,12.2924697 0.82694,1.68182 3.77004,12.91891 4.8203,18.40448 0.83017,4.33602 0.82002,12.26865 -0.02,15.68358 -2.74645,11.16425 -10.90489,19.37087 -25.97785,26.13124 -29.14595,13.07225 -70.00993,19.66742 -111.25729,17.95618 z"
     id="path333"
     inkscape:connector-curvature="0" />
</svg>
