<?xml version="1.0" encoding="UTF-8" standalone="no"?>
<!-- Created with Inkscape (http://www.inkscape.org/) -->

<svg
   xmlns:dc="http://purl.org/dc/elements/1.1/"
   xmlns:cc="http://creativecommons.org/ns#"
   xmlns:rdf="http://www.w3.org/1999/02/22-rdf-syntax-ns#"
   xmlns:svg="http://www.w3.org/2000/svg"
   xmlns="http://www.w3.org/2000/svg"
   xmlns:sodipodi="http://sodipodi.sourceforge.net/DTD/sodipodi-0.dtd"
   xmlns:inkscape="http://www.inkscape.org/namespaces/inkscape"
   width="269.24799mm"
   height="88.928452mm"
   viewBox="0 0 269.24799 88.928452"
   preserveAspectRatio="none"
   version="1.1"
   id="svg189"
   inkscape:version="0.92.2 5c3e80d, 2017-08-06"
   sodipodi:docname="bulle5.svg">
  <metadata
     id="metadata237">
    <rdf:RDF>
      <cc:Work
         rdf:about="">
        <dc:format>image/svg+xml</dc:format>
        <dc:type
           rdf:resource="http://purl.org/dc/dcmitype/StillImage" />
      </cc:Work>
    </rdf:RDF>
  </metadata>
  <defs
     id="defs235" />
  <sodipodi:namedview
     pagecolor="#ffffff"
     bordercolor="#666666"
     borderopacity="1"
     objecttolerance="10"
     gridtolerance="10"
     guidetolerance="10"
     inkscape:pageopacity="0"
     inkscape:pageshadow="2"
     inkscape:window-width="1105"
     inkscape:window-height="636"
     id="namedview233"
     showgrid="false"
     inkscape:zoom="0.40977558"
     inkscape:cx="508.81509"
     inkscape:cy="168.05377"
     inkscape:window-x="0"
     inkscape:window-y="0"
     inkscape:window-maximized="0"
     inkscape:current-layer="svg189" />
  <path
     style="fill:#ed2123;stroke-width:0.26458332"
     d="m 116.4805,88.845787 c -1.45521,-0.0506 -7.22974,-0.27338 -12.8323,-0.49501 -21.403074,-0.84669 -29.184242,-0.97592 -53.445827,-0.88763 -26.077238,0.0949 -30.509704,-0.0451 -34.949792,-1.10415 -2.276781,-0.54305 -5.6306072,-2.05002 -6.8546882,-3.08002 -1.739794,-1.46394 -3.188794,-5.46352 -5.928218,-16.3633 -2.20060503,-8.75588 -2.72912703,-15.23486 -2.36338003,-28.97187 0.322009,-12.09424 -0.08265,-11.06966 6.83670403,-17.31012 1.600729,-1.44367 3.5848832,-3.06209 4.4092312,-3.59649 3.851279,-2.49669 13.477762,-5.74945 20.726185,-7.00333 1.309687,-0.22656 6.072187,-0.64881 10.583333,-0.93834 10.401226,-0.66757 24.536818,-2.13081 30.559375,-3.16336 2.048988,-0.35129 9.775684,-1.27332 12.303124,-1.46814 8.181041,-0.63062 29.843393,-0.57284 50.932283,0.13585 l 8.86355,0.29786 6.87916,-1.70019 c 3.78354,-0.9351 8.66511,-2.04175 10.84792,-2.45921 3.70512,-0.7086 4.38177,-0.75736 10.18646,-0.73404 3.41974,0.0137 7.42957,0.15968 8.91074,0.3243 3.91767,0.43543 13.15245,0.79073 28.92467,1.11286 17.50172,0.35745 23.50499,0.91569 32.33434,3.00674 3.75569,0.88946 4.33673,1.15674 7.3965,3.40246 l 2.60919,1.91502 5.66892,8.46667 c 3.11791,4.65667 6.09321,9.32068 6.61174,10.36448 1.30622,2.62925 2.68848,6.88549 3.20744,9.87615 0.59256,3.41483 0.41095,9.58809 -0.36738,12.48792 -1.11889,4.16873 -3.39119,8.12328 -6.73705,11.72482 -1.0798,1.16231 -2.7048,3.24439 -3.61111,4.62684 -2.42263,3.69539 -3.58996,5.12627 -5.18756,6.35882 -5.679,4.38131 -26.19241,9.0283 -50.12711,11.3555 -9.97577,0.96995 -12.735,1.09652 -31.88229,1.46238 -16.83881,0.32176 -19.78706,0.4413 -25.4,1.02989 -11.07256,1.1611 -20.93691,1.61074 -29.10416,1.32664 z"
     id="path202"
     inkscape:connector-curvature="0" />
</svg>
