<svg xmlns="http://www.w3.org/2000/svg" width="442.803" height="294.746" viewBox="0 0 117.158 77.985" preserveAspectRatio="none"><path d="M95.096 77.375c-15.217-2.439-32.636-3.87-52.198-4.289-16.765-.359-18.5-.573-26.895-3.33-4.554-1.495-6.127-2.121-6.414-2.554-.239-.36-.473-1.829-.628-3.94-.312-4.248-.782-6.879-2.152-12.052l-2.115-7.985c-2.12-8-2.982-14.382-3.403-25.212-.24-6.15-.364-7.479-.835-8.885C-.261 6.99-.12 4.077.79 2.226L1.4.985h2.151c1.183 0 6.183.239 11.111.53 11.349.672 21.684 1.016 26.266.874 1.962-.06 8.264-.297 14.004-.526 7.12-.283 13.671-.373 20.61-.283 10.965.14 11.16.158 22.46 2.01 7.515 1.231 9.772 1.49 14.98 1.723l4.017.179-.115.685c-.063.377-.6 4.036-1.193 8.131-.594 4.095-1.495 9.444-2.003 11.887-1.054 5.067-4.835 21.422-6.612 28.598-1.15 4.646-6.236 21.863-6.736 22.801-.296.556-.447.55-5.245-.22z" fill="#ed2123"/></svg>