<?xml version="1.0" encoding="UTF-8" standalone="no"?>
<!-- Created with Inkscape (http://www.inkscape.org/) -->

<svg
   xmlns:dc="http://purl.org/dc/elements/1.1/"
   xmlns:cc="http://creativecommons.org/ns#"
   xmlns:rdf="http://www.w3.org/1999/02/22-rdf-syntax-ns#"
   xmlns:svg="http://www.w3.org/2000/svg"
   xmlns="http://www.w3.org/2000/svg"
   xmlns:sodipodi="http://sodipodi.sourceforge.net/DTD/sodipodi-0.dtd"
   xmlns:inkscape="http://www.inkscape.org/namespaces/inkscape"
   width="112.99999mm"
   height="63mm"
   viewBox="0 0 112.99999 63"
   version="1.1"
   id="svg5141"
   inkscape:version="0.92.2 5c3e80d, 2017-08-06"
   preserveAspectRatio="none"
   sodipodi:docname="bulle-conseil-4.svg">
  <defs
     id="defs5135" />
  <sodipodi:namedview
     id="base"
     pagecolor="#ffffff"
     bordercolor="#666666"
     borderopacity="1.0"
     inkscape:pageopacity="0.0"
     inkscape:pageshadow="2"
     inkscape:zoom="0.35"
     inkscape:cx="-788.57142"
     inkscape:cy="560.00001"
     inkscape:document-units="mm"
     inkscape:current-layer="svg5141"
     showgrid="false"
     inkscape:window-width="1389"
     inkscape:window-height="855"
     inkscape:window-x="0"
     inkscape:window-y="1"
     inkscape:window-maximized="1" />
  <metadata
     id="metadata5138">
    <rdf:RDF>
      <cc:Work
         rdf:about="">
        <dc:format>image/svg+xml</dc:format>
        <dc:type
           rdf:resource="http://purl.org/dc/dcmitype/StillImage" />
        <dc:title />
      </cc:Work>
    </rdf:RDF>
  </metadata>
  <path
     style="fill:#ed2123;stroke:none;stroke-width:0"
     d="m 45.533711,62.756418 c -12.672679,-0.86873 -26.423693,-2.80012 -32.562953,-4.57363 -4.8639972,-1.40509 -8.9066377,-3.63093 -10.5523125,-5.80999 -0.4166431,-0.55167 -0.8411787,-1.06203 -0.9434236,-1.13415 -0.102245,-0.0722 -0.50709898,-2.60923 -0.89967562,-5.63804 -0.82308156,-6.35031 -0.7792737,-8.63497 0.23635916,-12.325 0.62606576,-2.27463 3.45412436,-9.96182 5.16136536,-14.02953 1.9943439,-4.75174 4.9780112,-9.3325201 8.4078802,-12.9084601 3.353324,-3.49614 5.865042,-4.77093 11.344602,-5.75785002 2.717293,-0.4894 4.127815,-0.555 12.425464,-0.57784 15.305167,-0.0421 20.640669,0.57282 44.032501,5.07509002 3.842956,0.73967 9.086833,1.74825 11.653058,2.24132 6.858424,1.31773 9.509464,2.46342 12.558734,5.4274401 2.59582,2.52325 4.26894,5.42501 5.71363,9.90934 1.20086,3.72749 1.18687,9.87319 -0.0355,15.60294 -0.2154,1.0096 -0.49726,4.19574 -0.62636,7.08032 -0.1424,3.18184 -0.39784,5.86353 -0.64941,6.81809 -1.10017,4.1743 -4.74012,6.96352 -10.5936,8.11766 -1.910291,0.37666 -14.263897,1.45413 -27.248904,2.37664 -5.802701,0.41225 -22.036566,0.4748 -27.421438,0.10565 z"
     id="path5154"
     inkscape:connector-curvature="0" />
</svg>
