<?xml version="1.0" encoding="UTF-8" standalone="no"?>
<!-- Created with Inkscape (http://www.inkscape.org/) -->

<svg
   xmlns:dc="http://purl.org/dc/elements/1.1/"
   xmlns:cc="http://creativecommons.org/ns#"
   xmlns:rdf="http://www.w3.org/1999/02/22-rdf-syntax-ns#"
   xmlns:svg="http://www.w3.org/2000/svg"
   xmlns="http://www.w3.org/2000/svg"
   xmlns:sodipodi="http://sodipodi.sourceforge.net/DTD/sodipodi-0.dtd"
   xmlns:inkscape="http://www.inkscape.org/namespaces/inkscape"
   width="117.15827mm"
   height="77.985008mm"
   viewBox="0 0 117.15827 77.985009"
   version="1.1"
   id="svg4835"
   inkscape:version="0.92.2 5c3e80d, 2017-08-06"
   preserveAspectRatio="none"
   sodipodi:docname="bulle-conseil-2.svg">
  <metadata
     id="metadata4955">
    <rdf:RDF>
      <cc:Work
         rdf:about="">
        <dc:format>image/svg+xml</dc:format>
        <dc:type
           rdf:resource="http://purl.org/dc/dcmitype/StillImage" />
      </cc:Work>
    </rdf:RDF>
  </metadata>
  <defs
     id="defs4829" />
  <sodipodi:namedview
     id="base"
     pagecolor="#ffffff"
     bordercolor="#666666"
     borderopacity="1.0"
     inkscape:pageopacity="0.0"
     inkscape:pageshadow="2"
     inkscape:zoom="0.35"
     inkscape:cx="-492.88258"
     inkscape:cy="29.60362"
     inkscape:document-units="mm"
     inkscape:current-layer="svg4835"
     showgrid="false"
     inkscape:window-width="1389"
     inkscape:window-height="855"
     inkscape:window-x="0"
     inkscape:window-y="1"
     inkscape:window-maximized="1" />
  <path
     style="fill:#ed2123;stroke:none;stroke-width:0"
     d="m 95.095732,77.374918 c -15.21705,-2.43879 -32.63604,-3.86997 -52.19778,-4.28868 -16.76517,-0.35885 -18.50023,-0.57366 -26.89469,-3.32972 -4.55469,-1.49539 -6.1272201,-2.12176 -6.4142601,-2.55489 -0.23858,-0.36 -0.47253,-1.82818 -0.62787,-3.94024 -0.31239,-4.24751 -0.78219,-6.87838 -2.15211,-12.05175 -0.59938,-2.26354 -1.55122,-5.85656 -2.1152,-7.9845 -2.12027,-8.0001 -2.98167,-14.38226 -3.40281,-25.211852 -0.23913,-6.149444 -0.36412997,-7.479154 -0.83524997,-8.8850201 -0.71676,-2.138899 -0.57548,-5.051253 0.33484,-6.902363 L 1.4008419,0.98500688 h 2.15135 c 1.18325,0 6.18315,0.23869602 11.1108901,0.53043402 11.34882,0.671895 21.68409,1.015618 26.26634,0.873566 1.96188,-0.06082 8.26367,-0.297307 14.00397,-0.525518 7.11927,-0.283029 13.6706,-0.373265 20.60963,-0.283878 10.96492,0.141253 11.16069,0.158778 22.4592,2.010204 7.515898,1.231596 9.772438,1.491135 14.981568,1.723098 L 117,5.4917449 l -0.11472,0.6856 c -0.0631,0.377076 -0.60021,4.0360101 -1.19357,8.1309761 -0.59336,4.094956 -1.49459,9.443877 -2.00273,11.886487 -1.05424,5.06768 -4.8353,21.42178 -6.61183,28.59792 -1.15025,4.64639 -6.23661,21.863 -6.73627,22.80133 -0.29613,0.55613 -0.447178,0.54982 -5.245148,-0.21914 z"
     id="path4938"
     inkscape:connector-curvature="0" />
</svg>
