<?xml version="1.0" encoding="UTF-8" standalone="no"?>
<!-- Created with Inkscape (http://www.inkscape.org/) -->

<svg
   xmlns:dc="http://purl.org/dc/elements/1.1/"
   xmlns:cc="http://creativecommons.org/ns#"
   xmlns:rdf="http://www.w3.org/1999/02/22-rdf-syntax-ns#"
   xmlns:svg="http://www.w3.org/2000/svg"
   xmlns="http://www.w3.org/2000/svg"
   xmlns:sodipodi="http://sodipodi.sourceforge.net/DTD/sodipodi-0.dtd"
   xmlns:inkscape="http://www.inkscape.org/namespaces/inkscape"
   viewBox="0 0 91.753014 58.120621"
   preserveAspectRatio="none"
   version="1.1"
   id="svg4812"
   sodipodi:docname="bulle-conseil-1.svg"
   inkscape:version="0.92.2 5c3e80d, 2017-08-06"
   width="91.753014"
   height="58.120621">
  <path
     style="fill:#ed2123;stroke:none;stroke-width:0"
     d="m 7.0820906,57.122692 c -1.239995,-1.71176 -1.453466,-2.66766 -1.258868,-5.63709 0.161504,-2.46444 0.106486,-2.898369 -0.907966,-7.161219 -0.593938,-2.4958 -1.315324,-5.66892 -1.603079,-7.05136 -0.524003,-2.51744 -3.50892598,-31.3618812 -3.30190598,-31.9075612 0.136886,-0.36082 -1.02614202,-0.27584 32.17252638,-2.35061 15.206927,-0.95036 29.732547,-1.91024 32.279167,-2.13304996 8.39005,-0.73407 12.64733,-0.95345 16.73486,-0.86236 3.90289,0.087 4.10844,0.12006 6.28118,1.01081996 2.60576,1.06827 2.69807,1.19647 3.48952,4.84613 0.42447,1.95738 0.5606,3.929221 0.70622,10.2299612 0.21308,9.21949 0.003,14.21334 -0.70801,16.80104 -0.27975,1.01865 -1.2434,4.1738 -2.14145,7.01146 -0.89806,2.83766 -1.86497,6.50811 -2.14869,8.15656 -0.41374,2.403839 -0.73866,3.425229 -1.64131,5.159379 -1.58976,3.05421 -2.00304,3.23471 -6.18736,2.7024 -1.72709,-0.21971 -7.84314,-0.84364 -13.59121,-1.3865 -10.1151,-0.9553 -10.79974,-0.98688 -21.29896,-0.98258 -14.26149,0.006 -20.708253,0.69904 -30.710182,3.3021 -2.318149,0.60331 -4.4732186,1.15579 -4.7890444,1.22772 -0.443851,0.1011 -0.756143,-0.12033 -1.375438,-0.97524 z"
     id="path4810"
     inkscape:connector-curvature="0" />
</svg>
