<svg xmlns="http://www.w3.org/2000/svg" viewBox="0 0 110 66" preserveAspectRatio="none"><path d="M14.874 65.945a840.75 840.75 0 00-4.514-.506c-1.98-.219-3.773-.464-3.987-.546-.213-.082-1.636-2.224-3.16-4.76L.438 55.52l-.256-3.92C-.243 45.083.04 40.806 1.402 33.194a551.14 551.14 0 002.127-12.939C6.344 1.392 6.303 1.56 8.28.608c1.354-.652 6.704-.773 17.366-.394 4.642.165 13.732.47 20.201.68 16.057.518 36.908 2.201 43.934 3.547 7.38 1.413 10.992 3.786 13.509 8.873 2.443 4.938 4.082 11.142 5.144 19.467.294 2.3.717 5.24.941 6.534.224 1.294.475 4.25.558 6.567.137 3.794.097 4.394-.396 6.018-.774 2.548-1.889 3.755-4.71 5.101-1.244.594-3.674 1.936-5.4 2.981-3.656 2.218-5.642 2.95-8.886 3.277-1.293.13-10.291.347-19.994.48l-17.643.243-9.017.954c-8.337.882-9.737.96-18.557 1.036-5.247.046-9.952.034-10.455-.027z" fill="#ed2123"/></svg>