<svg xmlns="http://www.w3.org/2000/svg" width="962" height="285" viewBox="0 0 254.529 75.406" preserveAspectRatio="none"><path d="M98.42 75.357c-7.604-.331-12.967-.884-22.744-2.343-2.468-.368-8.183-1.032-12.7-1.474-28.614-2.803-37.55-4.343-44.556-7.68-5.581-2.66-8.946-5.914-11.612-11.233-.778-1.55-4.159-10.995-5.92-16.536C.1 33.616.004 32.981 0 30.271c-.006-3.706.464-5.358 2.306-8.113 2.737-4.092 6.586-6.674 14.616-9.806a132.759 132.759 0 0116.88-5.34C41.51 5.11 63.394 1.404 73.093.358c4.004-.431 14.004-.182 20.962.522 5.924.6 12.58.703 17.991.278 2.828-.222 4.381-.164 10.716.398 12.792 1.136 16.95 1.42 36.777 2.517 25.96 1.436 29.316 1.707 44.45 3.594 13.278 1.656 26.182 3.758 31.726 5.169 3.62.921 6.691 2.542 12.191 6.435 3.4 2.406 4.499 3.521 5.449 5.53.648 1.37.772 1.964.772 3.703 0 1.835-.152 2.484-1.336 5.689-2.539 6.87-7.08 15.114-11.728 21.29-3.212 4.268-7.82 7.77-11.939 9.075-3.462 1.097-10.65 2.406-22.33 4.066-12.71 1.807-16.106 2.178-26.617 2.91-31.708 2.21-42.906 2.927-53.843 3.449-5.982.285-24.302.53-27.914.373z" fill="#ed2123"/></svg>