<?xml version="1.0" encoding="UTF-8" standalone="no"?>
<!-- Created with Inkscape (http://www.inkscape.org/) -->

<svg
   xmlns:dc="http://purl.org/dc/elements/1.1/"
   xmlns:cc="http://creativecommons.org/ns#"
   xmlns:rdf="http://www.w3.org/1999/02/22-rdf-syntax-ns#"
   xmlns:svg="http://www.w3.org/2000/svg"
   xmlns="http://www.w3.org/2000/svg"
   xmlns:sodipodi="http://sodipodi.sourceforge.net/DTD/sodipodi-0.dtd"
   xmlns:inkscape="http://www.inkscape.org/namespaces/inkscape"
   version="1.1"
   id="svg83"
   width="654.87274"
   height="15.584771"
   viewBox="0 0 654.87274 15.584771"
   sodipodi:docname="traits5.svg"
   inkscape:version="0.92.2 5c3e80d, 2017-08-06">
  <metadata
     id="metadata89">
    <rdf:RDF>
      <cc:Work
         rdf:about="">
        <dc:format>image/svg+xml</dc:format>
        <dc:type
           rdf:resource="http://purl.org/dc/dcmitype/StillImage" />
        <dc:title />
      </cc:Work>
    </rdf:RDF>
  </metadata>
  <defs
     id="defs87" />
  <sodipodi:namedview
     pagecolor="#ffffff"
     bordercolor="#666666"
     borderopacity="1"
     objecttolerance="10"
     gridtolerance="10"
     guidetolerance="10"
     inkscape:pageopacity="0"
     inkscape:pageshadow="2"
     inkscape:window-width="1210"
     inkscape:window-height="754"
     id="namedview85"
     showgrid="false"
     inkscape:zoom="1.0550534"
     inkscape:cx="271.59388"
     inkscape:cy="87.984312"
     inkscape:window-x="0"
     inkscape:window-y="0"
     inkscape:window-maximized="0"
     inkscape:current-layer="svg83" />
  <path
     style="color:#000000;font-style:normal;font-variant:normal;font-weight:normal;font-stretch:normal;font-size:medium;line-height:normal;font-family:sans-serif;font-variant-ligatures:normal;font-variant-position:normal;font-variant-caps:normal;font-variant-numeric:normal;font-variant-alternates:normal;font-feature-settings:normal;text-indent:0;text-align:start;text-decoration:none;text-decoration-line:none;text-decoration-style:solid;text-decoration-color:#000000;letter-spacing:normal;word-spacing:normal;text-transform:none;writing-mode:lr-tb;direction:ltr;text-orientation:mixed;dominant-baseline:auto;baseline-shift:baseline;text-anchor:start;white-space:normal;shape-padding:0;clip-rule:nonzero;display:inline;overflow:visible;visibility:visible;opacity:1;isolation:auto;mix-blend-mode:normal;color-interpolation:sRGB;color-interpolation-filters:linearRGB;solid-color:#000000;solid-opacity:1;vector-effect:none;fill-opacity:1;fill-rule:nonzero;stroke:none;stroke-width:1.19872916;stroke-linecap:butt;stroke-linejoin:miter;stroke-miterlimit:4;stroke-dasharray:none;stroke-dashoffset:0;stroke-opacity:1;color-rendering:auto;image-rendering:auto;shape-rendering:auto;text-rendering:auto;enable-background:accumulate"
     d="m 472.77991,0.19423893 c 6.69848,-0.5462 14.42183,0.0828 26.7168,1.59411997 8.52697,1.04816 19.55,2.32904 24.50586,2.84864 6.66322,0.69861 9.85061,1.75168 12.58984,4.07791 5.09411,4.3260501 12.38311,4.3336501 25.64063,0.31434 5.41974,-1.64311 14.1595,-3.53055 19.34961,-4.17896 5.24341,-0.65506 11.51856,-1.8498 14.07031,-2.69709 1.38916,-0.46124 4.20733,-0.83696 7.67774,-1.07771 3.4704,-0.24074997 7.61427,-0.35795997 11.7539,-0.35361997 4.13963,0.004 8.27526,0.13091 11.73047,0.37887997 3.45522,0.24798 6.25355,0.63207 7.60938,1.09456 2.54433,0.86787 8.11536,1.95974 12.49609,2.46695 2.5973,0.30072 4.59858,0.6931 5.95508,1.15069 0.67825,0.22877 1.19644,0.47685 1.52929,0.71285 0.33285,0.23601 0.43836,0.46109 0.43946,0.46589 0.0235,0.10246 0.0134,0.12387 0.0176,0.10102 0.004,-0.0229 0.0279,-0.0435 -0.0117,-0.003 -0.0793,0.0816 -0.42277,0.2635 -1.02149,0.35362 -1.19742,0.18023 -3.3891,0.12573 -6.90625,-0.12631 -4.84535,-0.34716 -10.88529,-1.35329 -13.26562,-2.18069 -1.49704,-0.52036 -4.13873,-0.88462 -7.41602,-1.13946 -3.27729,-0.25483 -7.16865,-0.38911 -11.07226,-0.40133 -7.80722,-0.0244 -15.59097,0.40991 -18.73829,1.42292 -2.39886,0.77211 -8.95194,2.00868 -14.43554,2.70832 -9.53648,1.21671 -15.11197,2.5447501 -24.07422,5.7281601 -2.09058,0.74258 -7.1571,1.41547 -11.07617,1.43414 -5.66586,0.027 -7.79154,-0.59264 -10.74219,-3.09843 -2.91928,-2.4791301 -6.31207,-3.5733101 -13.02539,-4.2771701 -4.9444,-0.5184 -15.97102,-1.79385 -24.49414,-2.83462 -18.20609,-2.22316 -27.27821,-2.28235 -33.3457,-0.1207 -2.37548,0.84632 -7.29502,2.60868 -10.9336,3.91513 -3.21961,1.156 -4.89526,1.7007001 -7.91601,1.51272 -3.02076,-0.18797 -7.39896,-1.13279 -15.85547,-3.01704 -15.87986,-3.53826 -18.30721,-3.73754 -27.30274,-2.26768 -5.32731,0.87052 -20.2602,1.59973 -33.06445,1.59973 -20.03556,0 -24.48875,0.41225 -31.24805,2.89635 -5.75081,2.1134801 -11.10525,2.8669101 -20.78906,2.9132001 -3.60891,0.0172 -7.39424,0.17901 -10.5918,0.42379 -3.19755,0.24478 -5.78316,0.56343 -7.09375,0.93738 -8.86543,2.52968 -25.12122,2.84037 -33.31054,0.64832 -6.57903,-1.76101 -17.12091,-2.09727 -56.09375,-1.84951 -49.28887,0.31333 -60.34652,-0.32303 -71.14844,-4.0442401 -6.74414,-2.32334 -12.3342,-2.071 -26.42773,1.15068 -8.96401,2.0491201 -25.009259,2.1743401 -71.761716,0.49957 -11.788561,-0.42228 -18.770788,-0.58968 -23.275394,-0.40695 -4.504607,0.18274 -6.568172,0.7271001 -8.414063,1.7316501 -2.4828152,1.35115 -5.0763262,2.22967 -7.0351562,2.52588 -0.979415,0.14811 -1.80493,0.14607 -2.33984397,0.0115 -0.267457,-0.0674 -0.459799,-0.17298 -0.550781,-0.25539 -0.09098,-0.0825 -0.07156,-0.0821 -0.07227,-0.0898 -0.02972,-0.32633 -0.0127399965,-0.47175 0.126953,-0.72689 0.139694,-0.25516 0.453735,-0.6023 1.02343797,-0.99913 1.139406,-0.79367 3.246366,-1.7813201 6.767578,-3.2556001 2.4937302,-1.04409 4.7223602,-1.60255 9.4667972,-1.80181 4.744437,-0.19925 11.977976,-0.029 24.380862,0.40134 46.961457,1.6293 61.714186,1.53626 70.343746,-0.5136 13.57105,-3.22364 21.6748,-3.54711 28.46485,-1.20681 10.98484,3.7861 22.08781,4.40886 70.45703,3.99933 40.31631,-0.34135 48.52956,-0.0509 57.99023,2.0487801 9.49995,2.10831 12.61158,2.21938 21.13672,0.75496 5.42688,-0.93221 17.77878,-2.2313501 27.39258,-2.8795301 11.75736,-0.79268 18.91407,-1.89082 22.02344,-3.52781 3.42218,-1.8017 8.58812,-2.25771 27.32812,-2.24806 12.73208,0.007 28.52368,-0.73139 35.17383,-1.65305 11.22641,-1.55589997 12.93283,-1.42992997 28.41992,2.06562 7.45108,1.68175 11.71634,2.57115 14.71289,2.82339 2.99655,0.25223 4.74275,-0.15423 6.99609,-1.03001 8.19095,-3.18345 13.86403,-4.90410997 20.5625,-5.45030997 z"
     id="path186"
     inkscape:connector-curvature="0" />
</svg>
