<?xml version="1.0" encoding="UTF-8" standalone="no"?>
<!-- Created with Inkscape (http://www.inkscape.org/) -->

<svg
   xmlns:dc="http://purl.org/dc/elements/1.1/"
   xmlns:cc="http://creativecommons.org/ns#"
   xmlns:rdf="http://www.w3.org/1999/02/22-rdf-syntax-ns#"
   xmlns:svg="http://www.w3.org/2000/svg"
   xmlns="http://www.w3.org/2000/svg"
   xmlns:sodipodi="http://sodipodi.sourceforge.net/DTD/sodipodi-0.dtd"
   xmlns:inkscape="http://www.inkscape.org/namespaces/inkscape"
   version="1.1"
   id="svg83"
   width="646.30609"
   height="13.542081"
   viewBox="0 0 646.30609 13.542081"
   sodipodi:docname="trait1.svg"
   inkscape:version="0.92.2 5c3e80d, 2017-08-06">
  <metadata
     id="metadata89">
    <rdf:RDF>
      <cc:Work
         rdf:about="">
        <dc:format>image/svg+xml</dc:format>
        <dc:type
           rdf:resource="http://purl.org/dc/dcmitype/StillImage" />
        <dc:title />
      </cc:Work>
    </rdf:RDF>
  </metadata>
  <defs
     id="defs87" />
  <sodipodi:namedview
     pagecolor="#ffffff"
     bordercolor="#666666"
     borderopacity="1"
     objecttolerance="10"
     gridtolerance="10"
     guidetolerance="10"
     inkscape:pageopacity="0"
     inkscape:pageshadow="2"
     inkscape:window-width="1210"
     inkscape:window-height="754"
     id="namedview85"
     showgrid="false"
     inkscape:zoom="1.0550534"
     inkscape:cx="274.00202"
     inkscape:cy="-181.11503"
     inkscape:window-x="0"
     inkscape:window-y="0"
     inkscape:window-maximized="0"
     inkscape:current-layer="svg83" />
  <path
     style="color:#000000;font-style:normal;font-variant:normal;font-weight:normal;font-stretch:normal;font-size:medium;line-height:normal;font-family:sans-serif;font-variant-ligatures:normal;font-variant-position:normal;font-variant-caps:normal;font-variant-numeric:normal;font-variant-alternates:normal;font-feature-settings:normal;text-indent:0;text-align:start;text-decoration:none;text-decoration-line:none;text-decoration-style:solid;text-decoration-color:#000000;letter-spacing:normal;word-spacing:normal;text-transform:none;writing-mode:lr-tb;direction:ltr;text-orientation:mixed;dominant-baseline:auto;baseline-shift:baseline;text-anchor:start;white-space:normal;shape-padding:0;clip-rule:nonzero;display:inline;overflow:visible;visibility:visible;opacity:1;isolation:auto;mix-blend-mode:normal;color-interpolation:sRGB;color-interpolation-filters:linearRGB;solid-color:#000000;solid-opacity:1;vector-effect:none;fill-opacity:1;fill-rule:nonzero;stroke:none;stroke-width:1.2403028;stroke-linecap:butt;stroke-linejoin:miter;stroke-miterlimit:4;stroke-dasharray:none;stroke-dashoffset:0;stroke-opacity:1;color-rendering:auto;image-rendering:auto;shape-rendering:auto;text-rendering:auto;enable-background:accumulate"
     d="m 105.5059,0.07624935 c 16.17702,-0.282672 31.15912,0.231737 43.0293,1.35807095 11.87017,1.126335 20.68034,2.91433 24.28906,4.999641 7.13656,4.1239037 13.82896,4.9016017 23.25,2.740188 4.11326,-0.94367 11.089,-2.312249 15.47851,-3.037643 4.41227,-0.729163 10.93417,-2.06036 14.52735,-2.965526 3.82562,-0.96373 15.87409,-1.490477 29.43359,-1.499292 13.5595,-0.0092 28.70312,0.477412 38.95508,1.463233 40.98843,3.941533 93.6141,4.11972 130.05078,0.435661 4.3407,-0.438891 10.56956,-2.92e-4 13.67969,0.940441 16.01645,4.847405 51.42264,6.1642337 81.83398,3.094731 9.04047,-0.912488 29.97536,-1.570872 46.46485,-1.457234 21.70033,0.149528 33.60594,-0.454321 42.99218,-2.19335 12.3431,-2.286851 13.12511,-2.274513 20.82227,0.573882 4.45892,1.650051 9.82289,3.190971 12.07422,3.440261 1.03665,0.114761 2.02837,0.4314 2.75976,0.829263 0.3657,0.19894 0.6667,0.420509 0.86524,0.621956 0.19853,0.201431 0.27192,0.389756 0.26953,0.378572 0.0258,0.120915 0.053,0.0031 -0.0391,0.123222 -0.0921,0.1207607 -0.35769,0.3191617 -0.75781,0.4597057 -0.80026,0.281087 -2.10904,0.388787 -3.72071,0.288441 -3.22334,-0.200724 -7.6882,-1.2028367 -12.19531,-2.9354967 -7.4434,-2.861441 -8.55942,-2.906592 -20.06055,-0.657999 -8.73809,1.708385 -20.19628,2.291697 -42.00586,2.127247 -16.51102,-0.124606 -37.65104,0.55516 -47.03515,1.5143217 -30.71065,3.138945 -67.02401,1.754905 -83.10742,-3.1127607 -3.30893,-1.001451 -9.2848,-1.417929 -13.44141,-0.95847 -33.82365,3.7387467 -88.9014,3.5566527 -130.38672,-0.432661 -10.10729,-0.97193 -24.69871,-1.452988 -37.85352,-1.448204 -13.1548,0.0046 -24.82047,0.482473 -29.25,1.481263 -3.84101,0.866077 -10.59328,2.221179 -14.98632,3.0106 -4.4074,0.7920037 -10.70462,2.0768807 -14.01758,2.8603627 -10.01221,2.367795 -18.40454,1.738125 -23.22071,-1.565395 -7.33246,-5.0294847 -19.2558,-6.3709887 -58.19921,-6.8084027 -20.075013,-0.225477 -46.923493,-0.527178 -59.664073,-0.670014 -6.89395,-0.07723 -13.283507,0.03261 -18.386712,0.291441 -5.103202,0.258766 -8.892322,0.65303 -10.712891,1.192822 -3.39134,1.005528 -10.64772,1.395084 -16.947265,1.228881 C 7.143196,5.7049383 4.222184,5.4850603 2.128906,5.1510383 1.210311,5.0044333 0.533989,4.8272613 0,4.6462593 c 0.01801,-0.0062 0.02256,-0.0092 0.04102,-0.01538 0.719994,-0.219646 1.783345,-0.442569 3.111328,-0.655015 2.655966,-0.424877 6.377203,-0.803819 10.652344,-1.054601 4.078332,-0.239245 7.923973,-0.589912 10.841796,-0.96147 1.458912,-0.185786 2.684088,-0.377526 3.597657,-0.564867 0.456784,-0.09369 0.835539,-0.185556 1.132812,-0.279426 0.297273,-0.09384 0.482096,-0.13214395 0.712891,-0.35154395 -0.08956,0.08522 -0.01833,0.01385 0.08594,-0.018 0.10427,-0.03138 0.261745,-0.06507 0.458985,-0.09907 0.394478,-0.06799 0.952326,-0.132914 1.648437,-0.192294 1.392223,-0.118915 3.337023,-0.215815 5.685547,-0.285441 4.697053,-0.139221 11.01308,-0.171326 17.80664,-0.06015 13.60175,0.222723 35.97454,0.207231 49.730473,-0.03307 z"
     id="path198"
     inkscape:connector-curvature="0" />
</svg>
