<?xml version="1.0" encoding="UTF-8" standalone="no"?>
<!-- Created with Inkscape (http://www.inkscape.org/) -->

<svg
   xmlns:dc="http://purl.org/dc/elements/1.1/"
   xmlns:cc="http://creativecommons.org/ns#"
   xmlns:rdf="http://www.w3.org/1999/02/22-rdf-syntax-ns#"
   xmlns:svg="http://www.w3.org/2000/svg"
   xmlns="http://www.w3.org/2000/svg"
   xmlns:sodipodi="http://sodipodi.sourceforge.net/DTD/sodipodi-0.dtd"
   xmlns:inkscape="http://www.inkscape.org/namespaces/inkscape"
   version="1.1"
   id="svg83"
   width="641.90143"
   height="25.316601"
   viewBox="0 0 641.90143 25.316601"
   sodipodi:docname="trait2.svg"
   inkscape:version="0.92.2 5c3e80d, 2017-08-06">
  <metadata
     id="metadata89">
    <rdf:RDF>
      <cc:Work
         rdf:about="">
        <dc:format>image/svg+xml</dc:format>
        <dc:type
           rdf:resource="http://purl.org/dc/dcmitype/StillImage" />
        <dc:title />
      </cc:Work>
    </rdf:RDF>
  </metadata>
  <defs
     id="defs87" />
  <sodipodi:namedview
     pagecolor="#ffffff"
     bordercolor="#666666"
     borderopacity="1"
     objecttolerance="10"
     gridtolerance="10"
     guidetolerance="10"
     inkscape:pageopacity="0"
     inkscape:pageshadow="2"
     inkscape:window-width="1210"
     inkscape:window-height="754"
     id="namedview85"
     showgrid="false"
     inkscape:zoom="1.0550534"
     inkscape:cx="263.54658"
     inkscape:cy="-83.302179"
     inkscape:window-x="0"
     inkscape:window-y="0"
     inkscape:window-maximized="0"
     inkscape:current-layer="svg83" />
  <path
     style="color:#000000;font-style:normal;font-variant:normal;font-weight:normal;font-stretch:normal;font-size:medium;line-height:normal;font-family:sans-serif;font-variant-ligatures:normal;font-variant-position:normal;font-variant-caps:normal;font-variant-numeric:normal;font-variant-alternates:normal;font-feature-settings:normal;text-indent:0;text-align:start;text-decoration:none;text-decoration-line:none;text-decoration-style:solid;text-decoration-color:#000000;letter-spacing:normal;word-spacing:normal;text-transform:none;writing-mode:lr-tb;direction:ltr;text-orientation:mixed;dominant-baseline:auto;baseline-shift:baseline;text-anchor:start;white-space:normal;shape-padding:0;clip-rule:nonzero;display:inline;overflow:visible;visibility:visible;opacity:1;isolation:auto;mix-blend-mode:normal;color-interpolation:sRGB;color-interpolation-filters:linearRGB;solid-color:#000000;solid-opacity:1;vector-effect:none;fill-opacity:1;fill-rule:nonzero;stroke:none;stroke-width:1.10918856;stroke-linecap:butt;stroke-linejoin:miter;stroke-miterlimit:4;stroke-dasharray:none;stroke-dashoffset:0;stroke-opacity:1;color-rendering:auto;image-rendering:auto;shape-rendering:auto;text-rendering:auto;enable-background:accumulate"
     d="m 553.54682,0 14.07812,0.62717 c 7.75596,0.34515 13.66141,0.77995 17.80469,1.3144 2.07164,0.26722 3.70387,0.56074 4.89648,0.87466 1.19262,0.31393 1.95761,0.6914 2.19922,0.92753 0.30775,0.30078 0.64535,0.40524 1.18946,0.60073 0.5441,0.1955 1.24906,0.40793 2.07226,0.62717 1.64641,0.43848 3.76582,0.9029 5.97656,1.29518 4.3748,0.7763 10.45955,2.28278 13.43555,3.31845 3.05363,1.06268 7.16047,1.4611 11.00781,1.29277 3.84735,-0.16833 7.40338,-0.87307 9.45313,-2.22271 0.82983,-0.54639 1.29867,-0.69403 1.80078,-0.53825 0.50211,0.15578 1.14769,0.71121 2.12695,1.84303 0.87642,1.01297 1.49405,2.01423 1.86719,2.85709 0.37314,0.84287 0.4761,1.54271 0.43945,1.81902 -0.0183,0.13815 -0.0391,0.14374 -0.0488,0.15138 -0.01,0.007 -0.066,0.0436 -0.23633,0.002 -0.34076,-0.0823 -1.02487,-0.52268 -1.9043,-1.50184 -0.57177,-0.63661 -1.42267,-0.94572 -2.39844,-1.13657 -0.97577,-0.19087 -2.08159,-0.22942 -3.13672,-0.14178 -1.05512,0.0876 -2.05396,0.29737 -2.83593,0.64638 -0.39099,0.17451 -0.73095,0.37992 -1.00391,0.66321 -0.27296,0.2833 -0.49414,0.69378 -0.49414,1.17503 0,-0.14553 0.0906,-0.2702 0.0977,-0.27633 0.007,-0.006 -0.0533,0.0352 -0.16016,0.0696 -0.2137,0.0689 -0.60047,0.12534 -1.09375,0.14418 -0.98656,0.0377 -2.4123,-0.056 -4.04492,-0.26192 -3.26525,-0.41195 -7.37685,-1.26713 -10.66992,-2.35007 C 611.16642,10.89924 605.32854,9.52574 600.90821,8.74136 598.71895,8.3529 596.61414,7.88861 594.99805,7.4582 594.19,7.243 593.50355,7.03499 592.9961,6.85266 592.48864,6.67034 592.11374,6.4386 592.14649,6.4706 591.62066,5.95668 590.80165,5.64175 589.56836,5.31478 588.33507,4.98783 586.70104,4.69394 584.64453,4.4233 580.53152,3.88204 574.73131,3.44138 567.16602,3.08968 L 553.36524,2.4481 542.95117,7.9508 c -5.65412,2.98809 -12.57666,6.16681 -15.24023,7.01895 -1.3866,0.44361 -2.75786,0.94972 -3.85938,1.40812 -0.55075,0.2292 -1.03376,0.44569 -1.42187,0.64159 -0.38811,0.19589 -0.66679,0.34635 -0.88867,0.54546 -1.10979,0.99584 -3.13304,1.60964 -7.00586,1.68925 -3.87282,0.0796 -9.56366,-0.3532 -17.96484,-1.28316 -9.9796,-1.10468 -21.12989,-1.71583 -24.98633,-1.33362 -3.72521,0.36919 -13.39732,1.21247 -21.48047,1.87187 -4.2648,0.34793 -8.19125,0.8193 -11.22656,1.32162 -1.51766,0.25116 -2.81274,0.50855 -3.82227,0.76653 -1.00953,0.25799 -1.70514,0.48156 -2.16602,0.80499 -0.12799,0.0898 -0.5495,0.26776 -1.14453,0.42531 -0.59502,0.15754 -1.37879,0.31586 -2.32226,0.47339 -1.88695,0.31503 -4.41157,0.624 -7.39063,0.9131 -5.95811,0.5782 -13.7356,1.08493 -21.91992,1.45618 -16.36865,0.7425 -34.39429,0.93754 -42.73437,0.0913 -9.66323,-0.98049 -15.931,-1.68625 -19.83204,-2.27318 -1.95051,-0.29346 -3.31093,-0.55837 -4.1914,-0.80498 -0.44024,-0.1233 -0.76081,-0.24553 -0.96094,-0.34842 -0.20013,-0.10285 -0.25945,-0.20781 -0.22266,-0.13457 -0.19841,-0.39498 -0.38333,-0.39024 -0.59765,-0.47337 -0.21433,-0.0832 -0.47498,-0.15446 -0.79102,-0.22107 -0.63207,-0.13323 -1.48404,-0.24843 -2.50976,-0.34842 -2.05145,-0.20001 -4.79131,-0.32907 -7.74219,-0.34123 -5.18055,-0.0213 -12.18342,-0.79846 -18.5332,-1.90792 -6.34978,-1.10946 -12.08909,-2.57788 -14.61133,-3.86871 -1.52359,-0.77974 -4.39428,-1.77139 -6.50586,-2.25876 -2.01043,-0.46401 -4.88477,-1.61859 -6.21875,-2.475 -0.53331,-0.3424 -1.33828,-0.53868 -2.47266,-0.74012 -1.13438,-0.20143 -2.56887,-0.37315 -4.21875,-0.51422 -3.29974,-0.28215 -7.45427,-0.44546 -11.70312,-0.48539 -4.24886,-0.04 -8.59063,0.0432 -12.26367,0.25952 -3.67305,0.21628 -6.65162,0.55174 -8.28907,1.0669 -2.0902,0.65761 -8.50675,1.70148 -14.07422,2.25875 -8.70347,0.87117 -11.12382,1.63037 -15.85351,4.95964 -2.49304,1.75486 -4.08855,2.70612 -6.64649,3.39774 -2.55794,0.69162 -6.0949,1.11117 -12.35546,1.7181 -15.91187,1.54256 -27.85716,0.9337 -38.33985,-1.92955 -4.17263,-1.13973 -11.47311,-2.35208 -16.31836,-2.71531 -7.28922,-0.54646 -9.79607,-0.21321 -14.21094,1.8911 -2.53455,1.20808 -7.73625,2.28479 -14.24023,3.09017 -6.503983,0.80538 -14.339713,1.36134 -22.273443,1.62918 -15.86744,0.53569 -32.19567,-0.11602 -38.94336,-2.18427 -3.15143,-0.96593 -8.562965,-1.08194 -16.654292,-0.43012 -8.456517,0.68124 -14.928862,1.01172 -19.34375,0.99482 C 4.251541,21.56399 2.556469,21.46915 1.404297,21.29184 0.828212,21.20314 0.386366,21.09133 0.103516,20.97706 0.011896,20.94006 0.051756,20.95906 0,20.92416 c 0.149925,-0.10125 0.329135,-0.21884 0.669922,-0.34361 0.862444,-0.31574 2.246203,-0.61871 4,-0.88427 3.507595,-0.53112 8.510218,-0.92258 14.082032,-1.13419 11.143627,-0.42322 24.587943,-0.12971 33.023433,1.1438 9.08354,1.37134 23.6858,1.42519 36.96289,0.60554 6.63855,-0.40983 12.941533,-1.03891 18.052743,-1.83584 5.1112,-0.79694 8.99355,-1.72422 10.96484,-2.88112 1.49497,-0.87735 2.78065,-1.36276 4.78516,-1.58353 2.0045,-0.22075 4.72223,-0.1602 8.97461,0.10089 5.62828,0.34562 13.64618,1.56173 17.71093,2.67687 10.74236,2.94706 22.05959,3.52853 37.36719,1.93675 12.02505,-1.25043 14.10263,-1.8424 20.33789,-5.72617 5.72248,-3.56436 7.76771,-4.21918 13.27735,-4.25559 3.70455,-0.0245 9.37879,-0.8433 12.74414,-1.84304 4.00689,-1.19033 13.65102,-1.84452 22.75781,-1.86228 4.55339,-0.009 8.98675,0.13544 12.54688,0.43253 3.56012,0.2971 6.31276,0.80794 7.22265,1.3096 1.81352,0.99985 5.68887,2.45438 8.74609,3.30403 1.5023,0.4175 3.03734,0.9053 4.29493,1.35285 1.25759,0.44753 2.27454,0.88514 2.58398,1.08372 0.9473,0.60789 2.63498,1.15127 4.88281,1.70608 2.24784,0.55479 5.02694,1.09003 8.02344,1.55949 5.993,0.93893 12.84803,1.61237 18.01758,1.61237 2.98798,0 5.81199,0.12603 7.94336,0.32679 1.06568,0.10039 1.95964,0.21963 2.60351,0.34843 0.32194,0.0643 0.5823,0.13264 0.75977,0.19464 0.17747,0.062 0.2811,0.16627 0.20508,0.0769 0.25943,0.305 0.5662,0.44334 0.98633,0.61996 0.42012,0.17662 0.9398,0.34586 1.53711,0.50702 1.19462,0.3223 2.69398,0.60725 4.22656,0.78094 21.94777,2.48741 38.15307,3.41992 48.07226,2.75136 6.32331,-0.42619 18.24905,-1.19133 26.49805,-1.69887 4.27986,-0.26334 8.36071,-0.67007 11.59375,-1.12697 1.61652,-0.22845 3.02097,-0.46722 4.13672,-0.71127 1.11575,-0.24406 1.92417,-0.47535 2.44531,-0.75692 0.31806,-0.17185 1.12041,-0.42996 2.20117,-0.68003 1.08077,-0.25006 2.46162,-0.50952 4.04102,-0.76173 3.1588,-0.50441 7.11281,-0.98049 11.08984,-1.30238 7.97579,-0.64557 17.79064,-1.46242 21.81641,-1.81662 3.91632,-0.34458 15.26241,0.24464 25.03516,1.32641 4.90122,0.54253 9.56741,0.95119 13.14453,1.17263 1.78856,0.11072 3.30405,0.17471 4.44531,0.18503 0.57063,0.005 1.04756,-0.002 1.42383,-0.0264 0.37626,-0.0234 0.62673,-0.042 0.87109,-0.13937 1.05192,-0.41954 2.79738,-1.1857 3.91016,-1.71329 1.93419,-0.91704 4.21539,-1.85057 6.15625,-2.55191 0.97043,-0.35066 1.85716,-0.64278 2.56836,-0.84583 0.7112,-0.20303 1.27389,-0.30997 1.47265,-0.30997 0.21113,0 0.3597,-0.0565 0.59571,-0.13697 0.23601,-0.0805 0.52884,-0.19358 0.875,-0.33881 0.6923,-0.29046 1.60011,-0.70643 2.66796,-1.21828 2.13572,-1.02372 4.90545,-2.43405 7.79883,-3.98406 z"
     id="path194"
     inkscape:connector-curvature="0" />
</svg>
