<?xml version="1.0" encoding="UTF-8" standalone="no"?>
<!-- Created with Inkscape (http://www.inkscape.org/) -->

<svg
   xmlns:dc="http://purl.org/dc/elements/1.1/"
   xmlns:cc="http://creativecommons.org/ns#"
   xmlns:rdf="http://www.w3.org/1999/02/22-rdf-syntax-ns#"
   xmlns:svg="http://www.w3.org/2000/svg"
   xmlns="http://www.w3.org/2000/svg"
   xmlns:sodipodi="http://sodipodi.sourceforge.net/DTD/sodipodi-0.dtd"
   xmlns:inkscape="http://www.inkscape.org/namespaces/inkscape"
   version="1.1"
   id="svg83"
   width="650.44855"
   height="35.060162"
   viewBox="0 0 650.44855 35.060162"
   sodipodi:docname="traits4.svg"
   inkscape:version="0.92.2 5c3e80d, 2017-08-06">
  <metadata
     id="metadata89">
    <rdf:RDF>
      <cc:Work
         rdf:about="">
        <dc:format>image/svg+xml</dc:format>
        <dc:type
           rdf:resource="http://purl.org/dc/dcmitype/StillImage" />
        <dc:title />
      </cc:Work>
    </rdf:RDF>
  </metadata>
  <defs
     id="defs87" />
  <sodipodi:namedview
     pagecolor="#ffffff"
     bordercolor="#666666"
     borderopacity="1"
     objecttolerance="10"
     gridtolerance="10"
     guidetolerance="10"
     inkscape:pageopacity="0"
     inkscape:pageshadow="2"
     inkscape:window-width="1210"
     inkscape:window-height="754"
     id="namedview85"
     showgrid="false"
     inkscape:zoom="1.0550534"
     inkscape:cx="264.39377"
     inkscape:cy="185.43398"
     inkscape:window-x="0"
     inkscape:window-y="0"
     inkscape:window-maximized="0"
     inkscape:current-layer="svg83" />
  <path
     style="color:#000000;font-style:normal;font-variant:normal;font-weight:normal;font-stretch:normal;font-size:medium;line-height:normal;font-family:sans-serif;font-variant-ligatures:normal;font-variant-position:normal;font-variant-caps:normal;font-variant-numeric:normal;font-variant-alternates:normal;font-feature-settings:normal;text-indent:0;text-align:start;text-decoration:none;text-decoration-line:none;text-decoration-style:solid;text-decoration-color:#000000;letter-spacing:normal;word-spacing:normal;text-transform:none;writing-mode:lr-tb;direction:ltr;text-orientation:mixed;dominant-baseline:auto;baseline-shift:baseline;text-anchor:start;white-space:normal;shape-padding:0;clip-rule:nonzero;display:inline;overflow:visible;visibility:visible;opacity:1;isolation:auto;mix-blend-mode:normal;color-interpolation:sRGB;color-interpolation-filters:linearRGB;solid-color:#000000;solid-opacity:1;vector-effect:none;fill-opacity:1;fill-rule:nonzero;stroke:none;stroke-width:1.14958227;stroke-linecap:butt;stroke-linejoin:miter;stroke-miterlimit:4;stroke-dasharray:none;stroke-dashoffset:0;stroke-opacity:1;color-rendering:auto;image-rendering:auto;shape-rendering:auto;text-rendering:auto;enable-background:accumulate"
     d="m 528.47457,0.09896744 c 7.92556,0.14321 13.16981,0.45647 14.99023,0.87242 3.34981,0.76533996 8.78452,1.93636996 12.08985,2.60435996 3.26667,0.66017 8.4469,2.1599 11.43555,3.30901 3.63614,1.39805 12.54285,2.55055 24.61914,3.2651296 10.44263,0.61793 25.27612,1.80037 32.9414,2.62759 6.75093,0.72856 10.27442,1.08826 12.63477,0.91373 2.36034,-0.17455 3.56572,-0.93759 5.41015,-2.30754 1.00753,-0.74832 2.17283,-1.3917496 3.2168,-1.8119496 1.04397,-0.4202 1.99511,-0.59483 2.42578,-0.51106 1.15614,0.22491 1.94762,1.1095496 2.14258,1.6725696 0.0975,0.2815 0.0766,0.37412 0.0195,0.4646 -0.057,0.0905 -0.27964,0.2736 -0.80078,0.2736 -0.63707,0 -1.47035,0.34681 -2.48633,0.86726 -1.01598,0.52045 -2.16637,1.231 -3.22656,2.01845 -1.82529,1.35572 -2.72792,1.97224 -5.12305,2.12685 -2.39513,0.15461 -6.26331,-0.21171 -13.73047,-0.97309 -8.46083,-0.86269 -23.92189,-2.07932 -34.3789,-2.70502 -12.01713,-0.71906 -21.04527,-1.94318 -24.38282,-3.2264096 -3.06135,-1.17708 -8.23112,-2.67151 -11.56445,-3.34515 -3.29468,-0.66585 -8.71752,-1.83488 -12.03906,-2.59403 -1.05736,-0.24168 -3.14361,-0.41222 -6.08399,-0.5498 -2.94037,-0.13756 -6.71137,-0.23387 -11.0332,-0.29166 -8.64366,-0.11563 -19.49177,-0.0793 -30.29101,0.0748 -10.79925,0.15417 -21.54933,0.42767 -29.9961,0.78724 -4.22338,0.1798 -7.8708,0.37934 -10.66406,0.59883 -2.79326,0.21949 -4.68862,0.43737 -5.58594,0.72271 -2.42516,0.77116 -7.61144,1.89177 -11.43945,2.4624 -1.9405,0.28927 -4.01517,0.7194 -5.80664,1.18217 -1.79147,0.46276 -3.2787,0.94246 -4.12891,1.3937996 -0.66914,0.35523 -2.41849,0.90158 -4.57422,1.41704 -2.15572,0.51547 -4.75163,1.02379 -7.25781,1.39897 -5.0649,0.75827 -11.66239,2.32836 -14.7793,3.531 -2.54746,0.98291 -4.23609,1.45276 -7.83007,1.42736 -3.59399,-0.0253 -9.06966,-0.56637 -19.02539,-1.64417 -5.90741,-0.63953 -11.38483,-1.35134 -15.44532,-1.9849 -2.03024,-0.31678 -3.70775,-0.61389 -4.90039,-0.86983 -0.59632,-0.12794 -1.07247,-0.24699 -1.40234,-0.34845 -0.16494,-0.0508 -0.29301,-0.0983 -0.37305,-0.13424 -0.08,-0.036 -0.1229,-0.10788 -0.0273,0.0104 -0.16269,-0.20127 -0.24218,-0.19041 -0.33594,-0.22455 -0.0938,-0.0341 -0.19399,-0.0602 -0.3125,-0.0852 -0.23703,-0.05 -0.54518,-0.0937 -0.93164,-0.13679 -0.77293,-0.086 -1.85412,-0.1648 -3.20703,-0.23747 -2.70581,-0.14536 -6.4935,-0.26725 -11.00391,-0.36394 -9.02081,-0.19339 -20.92721,-0.28898 -32.79492,-0.28908 -11.86771,-1.1e-4 -23.69576,0.0959 -32.56055,0.28908 -4.43239,0.0966 -8.1235,0.21857 -10.71289,0.36394 -1.29469,0.0727 -2.31214,0.15093 -3.01953,0.23747 -0.35369,0.0432 -0.62806,0.0861 -0.83789,0.13938 -0.10491,0.0266 -0.19025,0.0522 -0.28906,0.10325 -0.0494,0.0254 -0.10411,0.053 -0.17969,0.13162 -0.0756,0.0786 -0.20703,0.26542 -0.20703,0.55495 0,-0.18317 0.0377,-0.11934 -0.082,0.008 -0.1197,0.127 -0.33812,0.29926 -0.62109,0.46719 -0.56595,0.33584 -1.38809,0.66968 -2.28907,0.89307 -1.94406,0.48196 -4.87581,1.78935 -6.66797,2.97088 -2.18892,1.4431 -8.18148,2.20927 -26.16406,2.93215 -6.39381,0.25705 -12.36817,0.6249 -16.84961,1.00924 -2.24072,0.19217 -4.10616,0.38774 -5.4707,0.57817 -0.68227,0.0953 -1.23824,0.18828 -1.66016,0.28134 -0.21096,0.0465 -0.38978,0.0946 -0.53906,0.14454 -0.14928,0.0498 -0.25951,0.0824 -0.4082,0.20391 -0.086,0.0703 -0.48223,0.27385 -1.01953,0.45944 -0.53731,0.18559 -1.2376,0.38288 -2.04297,0.57819 -1.61075,0.39061 -3.64526,0.77091 -5.70313,1.04277 -22.14039,2.92482 -27.29628,3.75237 -35.22656,5.65009 -2.38797,0.57144 -4.85676,1.2408 -6.91602,1.86099 -2.05925,0.62021 -3.68255,1.17581 -4.48632,1.57966 -2.90859,1.46142 -8.55377,1.47699 -12.71875,-0.0645 -1.61288,-0.59693 -5.54787,-2.32295 -8.6836,-3.81491 -3.21142,-1.52796 -9.27637,-3.42242 -13.59765,-4.25629 -4.23664,-0.81752 -9.568351,-2.62475 -11.642581,-3.89492 -1.89934,-1.16307 -3.92835,-1.80881 -10.75586,-2.18622 -6.82752,-0.37742 -18.5296,-0.50829 -39.95313,-0.66592 -15.07842,-0.11101 -26.70079,-0.31288 -34.548825,-0.59367 C 4.238129,18.370097 1.944882,18.226507 0,18.079407 c 1.966571,-0.14806 4.302653,-0.28996 7.699218,-0.4104 7.925354,-0.281 19.664094,-0.4822 34.896481,-0.59365 22.05242,-0.16135 33.85692,-0.20944 40.59961,0.0723 6.7427,0.28172 8.3358,0.86283 10.1875,1.99781 2.34509,1.43739 7.633731,3.19489 11.957031,4.02915 4.23789,0.81778 10.32359,2.73128 13.40235,4.20207 9.59897,4.58572 15.17057,5.90798 18.92578,4.16338 5.01232,-2.32866 19.38889,-5.70555 30.00977,-7.00004 16.30954,-1.98782 24.75337,-3.42312 29.08398,-4.98158 0.97659,-0.35146 3.69834,-0.74127 7.13086,-1.0144 3.43252,-0.27311 7.625,-0.45508 11.74023,-0.47491 7.5728,-0.0364 14.56217,-0.43164 20.08203,-1.08407 5.51987,-0.65244 9.51056,-1.49833 11.34571,-2.6689 0.99021,-0.63164 3.291,-2.13578 5.125,-3.3503 2.76496,-1.8310496 8.291,-2.1371796 51.32617,-2.1371796 13.26519,0 25.42457,0.13176 34.33008,0.34329 4.45275,0.10569 8.0926,0.23245 10.64648,0.37168 1.27694,0.0696 2.28453,0.14228 2.97852,0.21682 0.34699,0.0372 0.61621,0.0759 0.79297,0.111 0.0884,0.0176 0.15389,0.0336 0.18359,0.0438 0.0297,0.0104 0.0379,0.0784 -0.10352,-0.0955 0.15889,0.1953396 0.25686,0.2150096 0.38672,0.2735996 0.12987,0.0585 0.28075,0.11123 0.46289,0.16776 0.36429,0.11297 0.84878,0.23369 1.44922,0.36396 1.20088,0.26051 2.86107,0.55761 4.86914,0.87499 4.01616,0.63477 9.41792,1.34967 15.24219,1.99006 9.79862,1.07739 15.18126,1.62132 18.72266,1.64676 3.54139,0.0254 5.27263,-0.4928 7.58398,-1.4919 2.62859,-1.1362 9.02786,-2.73537 14.06641,-3.48968 2.5503,-0.3817896 5.26395,-0.9502096 7.59179,-1.5589996 2.32785,-0.6088 4.24671,-1.2396 5.30664,-1.82487 1.8034,-0.99579 6.04094,-1.90745 9.17188,-1.90745 1.62021,0 3.15129,-0.12806 4.33203,-0.33813 0.59037,-0.10511 1.09182,-0.22764 1.48828,-0.37685 0.19824,-0.0746 0.36934,-0.15476 0.52344,-0.25553 0.1541,-0.10072 0.30505,-0.20584 0.42969,-0.47235 0.0134,-0.0287 0.22182,-0.27373 0.69531,-0.48783 0.47349,-0.2141 1.18351,-0.42643 2.14063,-0.62205 1.91422,-0.39122 4.81928,-0.72203 8.9414,-0.99889 8.24423,-0.55372996 21.36191,-0.90081996 41.31055,-1.17183996 12.83744,-0.17442 23.49436,-0.1845 31.41992,-0.0413 z"
     id="path182"
     inkscape:connector-curvature="0" />
</svg>
