<svg xmlns="http://www.w3.org/2000/svg" width="638.67" height="21.496"><path style="line-height:normal;font-variant-ligatures:normal;font-variant-position:normal;font-variant-caps:normal;font-variant-numeric:normal;font-variant-alternates:normal;font-feature-settings:normal;text-indent:0;text-align:start;text-decoration-line:none;text-decoration-style:solid;text-decoration-color:#000;text-transform:none;text-orientation:mixed;white-space:normal;shape-padding:0;isolation:auto;mix-blend-mode:normal;solid-color:#000;solid-opacity:1" d="M603.885 0c3.321-.015 5.85.267 8.443.837 3.773.83 9.26 1.504 12.3 1.504 1.467 0 2.872.143 3.93.368.53.112.974.246 1.282.38.308.136.46.347.404.231.309.64.846.984 1.447 1.216.601.232 1.293.338 1.985.335.692-.003 1.383-.114 1.984-.35s1.137-.583 1.445-1.223c.18-.371.334-.476.442-.501.108-.026.232.009.402.19.34.364.72 1.341.72 2.636 0 .476-.045.797-.118.992-.074.195-.162.314-.403.449-.481.27-1.569.408-3.42.408-1.19 0-2.345-.144-3.22-.366a5.288 5.288 0 01-1.063-.373c-.255-.131-.38-.303-.35-.24-.225-.469-.54-.596-.931-.767-.39-.172-.876-.314-1.441-.434-1.131-.24-2.578-.386-4.094-.386-2.924 0-8.419-.664-12.106-1.47-5.245-1.147-10.144-1.116-20.898.11-13.307 1.516-22.931 1.722-48.092 1.027-4.722-.13-7.589-.125-9.531.163-1.942.288-3.01.913-3.893 1.94-1.237 1.437-3.322 2.079-7.58 2.079-3.816 0-7.558.887-10.135 2.448-1.75 1.06-5.344 2.129-10.777 3.117-5.433.988-12.725 1.92-21.984 2.813-4.439.428-10.614 1.67-13.842 2.799-4.758 1.663-9.925 1.867-32.857 1.23-18.635-.517-29.63-1.397-34.663-2.733-5.25-1.395-18.271-2.476-37.59-3.243-19.317-.767-44.887-1.203-75.05-1.24-38.783-.047-50.243-.48-54.377-1.846-4.608-1.524-11.513-1.637-39.096-.762-9.214.292-17.928.634-24.547.95a483.3 483.3 0 00-8.158.446c-2.064.135-3.346.237-3.87.355-.31.07-1.68.212-3.71.364-2.03.151-4.778.328-8.04.516-6.521.376-15.106.803-24.179 1.187-9.08.386-18.29.94-25.818 1.519-7.527.58-13.344 1.178-15.748 1.686-14.002 2.957-22.938 3.256-27.24 1.162l-.678-.33v.145c-2.905-1.252-5.986-1.562-11.807-.992-7.369.722-8.908.465-15.797-2.646-4.31-1.947-11.05-3.853-15.127-4.272-1.98-.203-3.778-.533-5.054-.892C.78 10.366.318 10.19 0 10.03l.014-.008c.378-.145.983-.273 1.726-.36 1.487-.176 3.542-.206 5.727-.103 4.37.205 9.33.986 11.283 2.002 8.126 4.224 11.062 4.847 19.11 4.05 5.899-.583 9.14-.284 12.269 1.083 2.476 1.083 6.939 1.402 12.164 1.153 5.225-.25 11.178-1.099 16.477-2.486 1.29-.337 4.761-.776 9.195-1.172 4.434-.396 9.866-.761 15.223-1.002 10.729-.483 27.152-1.395 36.507-2.027 9.336-.631 32.517-1.672 51.489-2.31 28.692-.966 35.389-.84 39.82.633 4.517 1.503 15.684 1.85 54.625 1.897 30.175.037 55.739.471 75.037 1.238 19.298.767 32.378 1.883 37.402 3.22 2.448.65 7.467 1.22 13.74 1.703 6.274.483 13.775.868 21.077 1.108 7.301.24 14.402.334 19.877.238 2.737-.049 5.068-.145 6.82-.296a23.45 23.45 0 002.18-.27c.573-.107.965-.197 1.293-.422.436-.299 1.412-.688 2.888-1.08 1.476-.39 3.465-.804 6.004-1.242 5.079-.877 12.362-1.861 22.215-3.012 8.474-.99 13.68-2.21 16.39-3.984 2.392-1.564 5.65-2.392 9.618-2.392 4.611 0 6.978-.695 9.17-2.774 1.262-1.197 2.036-1.753 3.95-2 1.913-.245 4.943-.113 10.437.236 18.756 1.193 30.794 1.012 46.959-.709C596.45.33 600.563.016 603.885 0z" color="#000" font-weight="400" font-family="sans-serif" overflow="visible"/></svg>