<?xml version="1.0" encoding="UTF-8" standalone="no"?>
<!-- Created with Inkscape (http://www.inkscape.org/) -->

<svg
   xmlns:dc="http://purl.org/dc/elements/1.1/"
   xmlns:cc="http://creativecommons.org/ns#"
   xmlns:rdf="http://www.w3.org/1999/02/22-rdf-syntax-ns#"
   xmlns:svg="http://www.w3.org/2000/svg"
   xmlns="http://www.w3.org/2000/svg"
   xmlns:sodipodi="http://sodipodi.sourceforge.net/DTD/sodipodi-0.dtd"
   xmlns:inkscape="http://www.inkscape.org/namespaces/inkscape"
   viewBox="0 0 110.00001 66"
   version="1.1"
   id="svg5063"
   inkscape:version="0.92.2 5c3e80d, 2017-08-06"
   preserveAspectRatio="none"
   sodipodi:docname="bulle-conseil-3.svg">
  <defs
     id="defs5057" />
  <sodipodi:namedview
     id="base"
     pagecolor="#ffffff"
     bordercolor="#666666"
     borderopacity="1.0"
     inkscape:pageopacity="0.0"
     inkscape:pageshadow="2"
     inkscape:zoom="0.35"
     inkscape:cx="-331.42857"
     inkscape:cy="-11.428521"
     inkscape:document-units="mm"
     inkscape:current-layer="svg5063"
     showgrid="false"
     inkscape:window-width="1389"
     inkscape:window-height="855"
     inkscape:window-x="0"
     inkscape:window-y="1"
     inkscape:window-maximized="1" />
  <metadata
     id="metadata5060">
    <rdf:RDF>
      <cc:Work
         rdf:about="">
        <dc:format>image/svg+xml</dc:format>
        <dc:type
           rdf:resource="http://purl.org/dc/dcmitype/StillImage" />
        <dc:title />
      </cc:Work>
    </rdf:RDF>
  </metadata>
  <path
     style="fill:#ed2123;stroke:none;stroke-width:0"
     d="M 14.873787,65.945441 C 14.37065,65.885093 12.339486,65.657021 10.360087,65.43866 8.3806893,65.22029 6.5865735,64.974609 6.3731636,64.892719 6.1597536,64.810769 4.7372834,62.66875 3.212119,60.132559 L 0.4390928,55.521317 0.18286652,51.600523 C -0.24302819,45.083439 0.04019341,40.805813 1.4015592,33.194031 2.0551218,29.539777 3.0125086,23.717393 3.5290856,20.255399 6.3437912,1.3918214 6.3034437,1.5587333 8.2783202,0.60805711 9.6326539,-0.043904 14.982784,-0.16537192 25.645208,0.21374711 c 4.64159,0.1650489 13.731994,0.4709483 20.200895,0.6797863 16.057374,0.51838399 36.907807,2.20187109 43.933745,3.54725369 7.380131,1.4132115 10.992262,3.7858492 13.508902,8.8733319 2.44282,4.938308 4.08225,11.141624 5.14467,19.466576 0.29354,2.300201 0.7168,5.240799 0.94056,6.534663 0.22376,1.293864 0.47497,4.248841 0.55823,6.566621 0.1363,3.79448 0.0968,4.393773 -0.39648,6.017933 -0.77399,2.548389 -1.88839,3.755557 -4.70926,5.101326 -1.24472,0.593833 -3.67452,1.935391 -5.399565,2.981245 -3.656946,2.217142 -5.643126,2.949517 -8.886573,3.2768 -1.29378,0.130545 -10.291434,0.346647 -19.994787,0.480224 l -17.642458,0.242866 -9.017257,0.953709 c -8.33695,0.881747 -9.737001,0.959941 -18.557253,1.036401 -5.246998,0.04548 -9.951653,0.0333 -10.45479,-0.02705 z"
     id="path5119"
     inkscape:connector-curvature="0" />
</svg>
