<?xml version="1.0" encoding="UTF-8" standalone="no"?>
<!-- Created with Inkscape (http://www.inkscape.org/) -->

<svg
   xmlns:dc="http://purl.org/dc/elements/1.1/"
   xmlns:cc="http://creativecommons.org/ns#"
   xmlns:rdf="http://www.w3.org/1999/02/22-rdf-syntax-ns#"
   xmlns:svg="http://www.w3.org/2000/svg"
   xmlns="http://www.w3.org/2000/svg"
   xmlns:sodipodi="http://sodipodi.sourceforge.net/DTD/sodipodi-0.dtd"
   xmlns:inkscape="http://www.inkscape.org/namespaces/inkscape"
   width="119mm"
   height="60.000015mm"
   viewBox="0 0 119 60.000015"
   version="1.1"
   id="svg269"
   inkscape:version="0.92.2 5c3e80d, 2017-08-06"
   preserveAspectRatio="none"
   sodipodi:docname="bulle-conseil-7.svg">
  <defs
     id="defs263" />
  <sodipodi:namedview
     id="base"
     pagecolor="#ffffff"
     bordercolor="#666666"
     borderopacity="1.0"
     inkscape:pageopacity="0.0"
     inkscape:pageshadow="2"
     inkscape:zoom="0.35"
     inkscape:cx="400"
     inkscape:cy="560.0001"
     inkscape:document-units="mm"
     inkscape:current-layer="svg269"
     showgrid="false"
     inkscape:window-width="1389"
     inkscape:window-height="855"
     inkscape:window-x="0"
     inkscape:window-y="1"
     inkscape:window-maximized="1" />
  <metadata
     id="metadata266">
    <rdf:RDF>
      <cc:Work
         rdf:about="">
        <dc:format>image/svg+xml</dc:format>
        <dc:type
           rdf:resource="http://purl.org/dc/dcmitype/StillImage" />
        <dc:title />
      </cc:Work>
    </rdf:RDF>
  </metadata>
  <path
     style="fill:#ed2123;stroke:none;stroke-width:0"
     d="m 9.497425,58.529619 c -3.7854804,-3.2121 -4.2081565,-3.72689 -5.9441397,-7.2395 -0.9097665,-1.84083 -2.0995213,-4.67314 -2.64389882,-6.29402 -0.98783718,-2.94127 -0.98947147,-2.95347 -0.83381024,-6.22518 0.28483732,-5.98673 1.89116926,-12.92695 4.28990206,-18.53469 3.2232933,-7.5354 6.5181597,-12.1824102 10.0123577,-14.1212002 1.868935,-1.03701 6.223689,-2.74796 6.99416,-2.74796 0.294916,0 0.86401,-0.3707 1.26465,-0.82378 0.986871,-1.11604 3.143904,-2.02436 5.580409,-2.34991 1.321366,-0.17655 11.749256,-0.23372 30.149476,-0.16529 l 28.12943,0.10462 4.226336,0.97563 c 2.324484,0.53661 5.712155,1.12837 7.528158,1.31505 l 3.301825,0.33942 4.88569,2.95646 c 7.73277,4.6792902 7.77079,4.7127902 9.8797,8.7037102 3.00324,5.68337 3.36719,9.17628 1.67623,16.08704 -1.30622,5.33834 -1.4043,6.51541 -0.85462,10.25595 0.78336,5.33079 0.19535,10.15001 -1.4521,11.90095 -0.7691,0.81742 -2.59753,1.42502 -7.13503,2.37102 -1.52544,0.31804 -4.97255,1.30205 -7.66023,2.18671 l -4.886706,1.60846 -4.622553,-0.0245 c -3.420328,-0.0181 -5.549986,-0.17522 -8.188524,-0.60406 -2.899136,-0.47119 -5.368895,-0.62525 -13.207296,-0.82389 -5.302729,-0.13438 -11.05588,-0.35048 -12.784778,-0.4802 -4.118572,-0.30905 -5.536071,-0.10502 -10.592136,1.52466 -5.455046,1.75828 -6.415795,1.82959 -12.414858,0.92151 -6.607212,-1.00013 -11.248158,-1.0114 -16.498488,-0.04 -2.100716,0.38864 -4.418597,0.70062 -5.150846,0.69326 -1.225117,-0.0123 -1.468378,-0.12963 -3.04831,-1.47025 z"
     id="path282"
     inkscape:connector-curvature="0" />
</svg>
