<svg xmlns="http://www.w3.org/2000/svg" width="978.787" height="394.681" viewBox="0 0 258.971 104.426" preserveAspectRatio="none"><path d="M154.212 104.19c-2.11-.098-4.49-.313-5.291-.478-1.504-.309-15.776-1.111-29.898-1.68-4.587-.186-17.263-.33-29.369-.337-18.141-.009-22.24.061-27.649.47-14.004 1.06-20.783.57-32.544-2.357-12.417-3.09-19.865-6.413-24.433-10.9-2.607-2.562-3.88-5.309-4.686-10.114-.417-2.486-.433-3.309-.154-7.933.42-6.956.883-10.95 2.288-19.711l1.72-10.718c1.29-8.046 4.539-14.597 9.907-19.977 4.03-4.038 7.437-6.352 15.623-10.604C43.103 2.9 49.006 1.523 68.62.765 109.989-.834 143.303.052 176.437 3.63c7.434.803 22.818 3.266 29.237 4.68 10.749 2.367 20.375 6.958 28.972 13.816 4.905 3.914 6.756 6.109 9.524 11.296.776 1.455 2.21 3.896 3.187 5.425 1.273 1.992 2.093 3.678 2.894 5.953.615 1.746 1.51 3.829 1.987 4.629 1.454 2.436 2.15 3.982 3.037 6.747 1.255 3.914 3.447 13.457 3.628 15.793.15 1.935.113 2.13-.765 3.969-.508 1.064-1.497 2.767-2.198 3.786-.701 1.018-2.312 3.4-3.58 5.291-3.659 5.457-9.118 10.46-13.35 12.236-1.516.636-4.855 1.278-7.936 1.527-1.164.094-6.224.633-11.245 1.197-5.02.564-11.628 1.215-14.684 1.447-5.956.45-17.823 1.676-24.418 2.522-3.428.44-5.467.511-13.362.471-5.124-.025-11.043-.127-13.153-.225z" fill="#ed2123"/></svg>