<svg xmlns="http://www.w3.org/2000/svg" width="1017.63" height="336.108" viewBox="0 0 269.248 88.928" preserveAspectRatio="none"><path d="M116.48 88.846c-1.455-.05-7.23-.274-12.832-.495-21.403-.847-29.184-.976-53.446-.888-26.077.095-30.51-.045-34.95-1.104-2.276-.543-5.63-2.05-6.854-3.08-1.74-1.464-3.189-5.464-5.928-16.363C.27 58.16-.26 51.68.106 37.944c.322-12.094-.082-11.07 6.837-17.31 1.6-1.444 3.585-3.062 4.41-3.597 3.85-2.496 13.477-5.75 20.725-7.003 1.31-.227 6.073-.649 10.584-.938 10.401-.668 24.537-2.131 30.56-3.164 2.048-.351 9.775-1.273 12.302-1.468 8.181-.63 29.844-.573 50.933.136l8.863.298 6.88-1.7c3.783-.936 8.664-2.042 10.847-2.46 3.705-.708 4.382-.757 10.187-.734 3.42.014 7.43.16 8.91.325 3.918.435 13.153.79 28.925 1.112 17.502.358 23.505.916 32.334 3.007 3.756.89 4.337 1.157 7.397 3.403l2.61 1.915 5.668 8.466c3.118 4.657 6.093 9.321 6.612 10.365 1.306 2.63 2.688 6.885 3.207 9.876.593 3.415.411 9.588-.367 12.488-1.12 4.169-3.391 8.123-6.737 11.725-1.08 1.162-2.705 3.244-3.611 4.627-2.423 3.695-3.59 5.126-5.188 6.358-5.679 4.382-26.192 9.029-50.127 11.356-9.976.97-12.735 1.096-31.882 1.462-16.84.322-19.787.442-25.4 1.03-11.073 1.161-20.937 1.61-29.104 1.327z" fill="#ed2123"/></svg>