<svg xmlns="http://www.w3.org/2000/svg" width="117mm" height="61mm" viewBox="0 0 117 61" preserveAspectRatio="none"><path d="M18.96 60.783c-1.392-.143-2.131-.405-3.6-1.28-2.087-1.242-2.816-2.013-4.13-4.369-1.125-2.015-1.968-4.228-3.21-8.43-.522-1.768-1.593-4.853-2.38-6.854-.944-2.403-1.779-5.192-2.46-8.213-.566-2.516-1.33-5.526-1.698-6.69C.738 22.594 0 18.688 0 17.104c0-3.09 3.676-6.248 10.785-9.263 3.424-1.452 4.982-1.923 10.72-3.238 2.177-.499 5.739-1.332 7.916-1.853C39.43.357 46.73-.209 64.119.062c19.378.302 31.288 1.355 40.912 3.62 3.737.878 8.339 3.41 9.965 5.48 1.75 2.23 2.03 3.1 2.002 6.267-.026 3.147-.41 6.556-1.161 10.312-.558 2.79-.677 4.012-1.197 12.294-.389 6.191-.79 8.784-1.611 10.391-.616 1.207-1.856 2.73-2.727 3.352-.862.616-18.65 6.01-23.043 6.99-6.218 1.384-9.754 1.524-28.286 1.12-9.76-.213-10.766-.19-19.506.462-9.027.674-16.6.834-20.506.433z" fill="#ed2123"/></svg>