<?xml version="1.0" encoding="UTF-8" standalone="no"?>
<!-- Created with Inkscape (http://www.inkscape.org/) -->

<svg
   xmlns:dc="http://purl.org/dc/elements/1.1/"
   xmlns:cc="http://creativecommons.org/ns#"
   xmlns:rdf="http://www.w3.org/1999/02/22-rdf-syntax-ns#"
   xmlns:svg="http://www.w3.org/2000/svg"
   xmlns="http://www.w3.org/2000/svg"
   xmlns:sodipodi="http://sodipodi.sourceforge.net/DTD/sodipodi-0.dtd"
   xmlns:inkscape="http://www.inkscape.org/namespaces/inkscape"
   width="274.29892mm"
   height="106.8558mm"
   viewBox="0 0 274.29892 106.8558"
   preserveAspectRatio="none"
   version="1.1"
   id="svg411"
   inkscape:version="0.92.2 5c3e80d, 2017-08-06"
   sodipodi:docname="bulle1.svg">
  <defs
     id="defs405" />
  <sodipodi:namedview
     id="base"
     pagecolor="#ffffff"
     bordercolor="#666666"
     borderopacity="1.0"
     inkscape:pageopacity="0.0"
     inkscape:pageshadow="2"
     inkscape:zoom="1.4"
     inkscape:cx="208.44521"
     inkscape:cy="217.58587"
     inkscape:document-units="mm"
     inkscape:current-layer="svg411"
     showgrid="false"
     inkscape:window-width="1392"
     inkscape:window-height="855"
     inkscape:window-x="0"
     inkscape:window-y="1"
     inkscape:window-maximized="1" />
  <metadata
     id="metadata408">
    <rdf:RDF>
      <cc:Work
         rdf:about="">
        <dc:format>image/svg+xml</dc:format>
        <dc:type
           rdf:resource="http://purl.org/dc/dcmitype/StillImage" />
        <dc:title />
      </cc:Work>
    </rdf:RDF>
  </metadata>
  <path
     style="fill:#ed2123;stroke-width:0.26458332"
     d="m 44.012463,106.47871 c -9.5115,-1.29534 -23.25632,-4.98825 -29.43449,-7.908362 C 8.9625524,95.916228 5.1363624,92.439488 2.9878024,88.038728 1.0339524,84.03677 -0.11466,80.759116 0.00908,66.842448 L 0.85203238,56.485901 2.5073324,53.077969 c 4.57022,-9.409205 11.7069606,-19.67575 19.1062406,-27.485245 9.56236,-10.092507 29.08465,-18.4708994 48.82388,-20.9537694 1.74625,-0.219649 6.09203,-0.69584 9.65729,-1.058202 14.48014,-1.471714 25.272497,-2.573021 30.028827,-3.06429594 4.13742,-0.427348 6.96668,-0.518624 16.0073,-0.516418006568 C 151.47304,0.00623866 171.80532,0.99656866 196.6437,3.4345796 c 4.36562,0.428508 9.8425,0.904651 12.17083,1.058097 17.54024,1.155964 31.00871,5.286025 45.38888,13.9183534 6.23199,3.74102 9.76503,6.344139 10.5594,7.780079 0.36226,0.654844 2.65608,5.399087 5.09737,10.542762 l 4.43873,9.352135 v 2.76298 c 0,7.464787 -1.56523,14.554372 -4.61759,20.91522 -3.02514,6.304129 -5.2505,9.068623 -11.84827,14.718726 -6.20776,5.316116 -9.96351,7.921896 -12.50602,8.676816 -1.01864,0.30245 -3.01386,0.95333 -4.43382,1.4464 -1.41995,0.49307 -4.15839,1.20361 -6.08541,1.57898 -1.92703,0.37537 -5.59981,1.09547 -8.16175,1.60024 -8.60328,1.69506 -13.05424,2.06337 -15.48603,1.28146 -1.21288,-0.38999 -1.57724,-0.37378 -6.31424,0.281 -4.25673,0.58839 -6.58806,0.732162 -15.21354,0.938172 -5.60255,0.13382 -13.02178,0.44078 -16.48717,0.68214 -7.91623,0.55134 -14.92545,0.38171 -23.46491,-0.5679 -8.37371,-0.931182 -17.86172,-1.156292 -23.41562,-0.555552 -2.18281,0.236102 -10.72243,0.963662 -18.97693,1.616802 -17.216237,1.36223 -18.455507,1.49438 -32.219957,3.43592 -5.60255,0.79026 -11.55567,1.56126 -13.22916,1.71333 -4.18997,0.38073 -14.62867,0.30341 -17.82608,-0.13203 z"
     id="path424"
     inkscape:connector-curvature="0"
     sodipodi:nodetypes="csscccsssssssscccsssccsccsccscscccc" />
</svg>
