<svg xmlns="http://www.w3.org/2000/svg" width="119mm" height="226.772" viewBox="0 0 119 60" preserveAspectRatio="none"><path d="M9.497 58.53c-3.785-3.212-4.208-3.727-5.944-7.24-.91-1.84-2.1-4.673-2.644-6.294-.987-2.941-.99-2.953-.833-6.225.284-5.987 1.89-12.927 4.29-18.535 3.223-7.535 6.518-12.182 10.012-14.121 1.869-1.037 6.224-2.748 6.994-2.748.295 0 .864-.37 1.265-.824.987-1.116 3.144-2.024 5.58-2.35 1.321-.176 11.75-.233 30.15-.165l28.129.105 4.226.975c2.325.537 5.712 1.129 7.528 1.315l3.302.34 4.886 2.956c7.733 4.68 7.77 4.713 9.88 8.704 3.003 5.683 3.367 9.176 1.676 16.087-1.306 5.338-1.404 6.515-.855 10.256.784 5.33.196 10.15-1.452 11.9-.769.818-2.597 1.426-7.135 2.372-1.525.318-4.972 1.302-7.66 2.187l-4.887 1.608-4.622-.024c-3.42-.018-5.55-.176-8.189-.604-2.899-.472-5.369-.626-13.207-.824-5.303-.135-11.056-.35-12.785-.48-4.119-.31-5.536-.106-10.592 1.524-5.455 1.758-6.416 1.83-12.415.922-6.607-1-11.248-1.012-16.498-.04-2.101.388-4.419.7-5.151.693-1.225-.012-1.469-.13-3.049-1.47z" fill="#ed2123"/></svg>