<?xml version="1.0" encoding="UTF-8" standalone="no"?>
<!-- Created with Inkscape (http://www.inkscape.org/) -->

<svg
   xmlns:dc="http://purl.org/dc/elements/1.1/"
   xmlns:cc="http://creativecommons.org/ns#"
   xmlns:rdf="http://www.w3.org/1999/02/22-rdf-syntax-ns#"
   xmlns:svg="http://www.w3.org/2000/svg"
   xmlns="http://www.w3.org/2000/svg"
   xmlns:sodipodi="http://sodipodi.sourceforge.net/DTD/sodipodi-0.dtd"
   xmlns:inkscape="http://www.inkscape.org/namespaces/inkscape"
   width="117mm"
   height="61mm"
   viewBox="0 0 117 61"
   version="1.1"
   id="svg191"
   inkscape:version="0.92.2 5c3e80d, 2017-08-06"
   preserveAspectRatio="none"
   sodipodi:docname="bulle-conseil-6.svg">
  <defs
     id="defs185" />
  <sodipodi:namedview
     id="base"
     pagecolor="#ffffff"
     bordercolor="#666666"
     borderopacity="1.0"
     inkscape:pageopacity="0.0"
     inkscape:pageshadow="2"
     inkscape:zoom="0.35"
     inkscape:cx="400"
     inkscape:cy="559.99999"
     inkscape:document-units="mm"
     inkscape:current-layer="svg191"
     showgrid="false"
     inkscape:window-width="1389"
     inkscape:window-height="855"
     inkscape:window-x="5"
     inkscape:window-y="0"
     inkscape:window-maximized="0" />
  <metadata
     id="metadata188">
    <rdf:RDF>
      <cc:Work
         rdf:about="">
        <dc:format>image/svg+xml</dc:format>
        <dc:type
           rdf:resource="http://purl.org/dc/dcmitype/StillImage" />
        <dc:title />
      </cc:Work>
    </rdf:RDF>
  </metadata>
  <path
     style="fill:#ed2123;stroke:none;stroke-width:0"
     d="m 18.960901,60.783191 c -1.392515,-0.14272 -2.131854,-0.40554 -3.601029,-1.28013 -2.086547,-1.24212 -2.815635,-2.01333 -4.130402,-4.36911 -1.124556,-2.01498 -1.966974,-4.22791 -3.2087702,-8.42904 C 7.497739,44.935671 6.4266163,41.850911 5.640425,39.849891 4.6963451,37.447021 3.8612374,34.658461 3.1809267,31.637271 2.614395,29.121341 1.8500539,26.111021 1.4823987,24.947681 0.73824242,22.593071 0,18.686271 0,17.102801 c 0,-3.09035 3.6763627,-6.2478 10.785244,-9.2629295 3.423404,-1.45199 4.982115,-1.92277 10.719524,-3.23762 2.176861,-0.49888 5.739006,-1.33275 7.915867,-1.85305 10.010142,-2.39258 17.308925,-2.95783 34.697882,-2.68717 19.378711,0.30163 31.288937,1.35523 40.912813,3.61923 3.73714,0.87915 8.33869,3.40996 9.96455,5.48039 1.75093,2.2297195 2.0292,3.1007095 2.00245,6.2677395 -0.0265,3.14674 -0.4106,6.55585 -1.16156,10.31148 -0.55784,2.78978 -0.67682,4.01192 -1.19693,12.29445 -0.38877,6.19107 -0.79076,8.78385 -1.61102,10.39069 -0.6162,1.2071 -1.8554,2.73077 -2.72633,3.35218 -0.86264,0.61551 -18.649867,6.01034 -23.043569,6.98907 -6.21763,1.38504 -9.754212,1.52514 -28.285712,1.12051 -9.759927,-0.2131 -10.765907,-0.18923 -19.50645,0.4627 -9.027249,0.67332 -16.599245,0.8331 -20.505858,0.43272 z"
     id="path204"
     inkscape:connector-curvature="0" />
</svg>
