<?xml version="1.0" encoding="UTF-8" standalone="no"?>
<!-- Created with Inkscape (http://www.inkscape.org/) -->

<svg
   xmlns:dc="http://purl.org/dc/elements/1.1/"
   xmlns:cc="http://creativecommons.org/ns#"
   xmlns:rdf="http://www.w3.org/1999/02/22-rdf-syntax-ns#"
   xmlns:svg="http://www.w3.org/2000/svg"
   xmlns="http://www.w3.org/2000/svg"
   xmlns:sodipodi="http://sodipodi.sourceforge.net/DTD/sodipodi-0.dtd"
   xmlns:inkscape="http://www.inkscape.org/namespaces/inkscape"
   width="270.13959mm"
   height="102.92292mm"
   viewBox="0 0 270.13959 102.92292"
   preserveAspectRatio="none"
   version="1.1"
   id="svg29"
   inkscape:version="0.92.2 5c3e80d, 2017-08-06"
   sodipodi:docname="bulle3.svg">
  <metadata
     id="metadata74">
    <rdf:RDF>
      <cc:Work
         rdf:about="">
        <dc:format>image/svg+xml</dc:format>
        <dc:type
           rdf:resource="http://purl.org/dc/dcmitype/StillImage" />
      </cc:Work>
    </rdf:RDF>
  </metadata>
  <defs
     id="defs72" />
  <sodipodi:namedview
     pagecolor="#ffffff"
     bordercolor="#666666"
     borderopacity="1"
     objecttolerance="10"
     gridtolerance="10"
     guidetolerance="10"
     inkscape:pageopacity="0"
     inkscape:pageshadow="2"
     inkscape:window-width="966"
     inkscape:window-height="590"
     id="namedview70"
     showgrid="false"
     inkscape:zoom="0.40842311"
     inkscape:cx="510.50001"
     inkscape:cy="194.50001"
     inkscape:window-x="0"
     inkscape:window-y="0"
     inkscape:window-maximized="0"
     inkscape:current-layer="svg29" />
  <path
     style="fill:#ed2123;stroke-width:0.26458335"
     d="m 68.478866,102.79377 c -0.509323,-0.049 -2.29526,-0.21524 -3.96875,-0.36931 -9.047303,-0.83295 -16.660448,-2.42414 -26.061459,-5.447002 -1.600729,-0.51471 -5.706359,-1.702993 -9.123625,-2.640629 C 20.572125,91.935182 17.86501,90.660843 14.617702,87.413535 10.705699,83.501532 5.9682607,74.445429 2.3390341,63.94159 0.70967855,59.225849 0.21518896,56.917865 0.04319501,53.225964 -0.14984998,49.082197 0.27356247,46.477951 1.9360069,41.584006 4.0835169,35.262113 7.9073573,28.196237 12.434813,22.18381 14.979542,18.804429 20.309323,13.665045 23.409502,11.601172 28.29185,8.3508597 31.36683,7.3267107 44.534074,4.5654467 c 16.00826,-3.357046 15.646567,-3.330109 44.714584,-3.330109 20.034922,0 25.176622,0.0786 32.411462,0.495465 10.57522,0.609336 18.31634,0.48839 28.575,-0.446451 4.00182,-0.36467397 8.28807,-0.72353097 9.525,-0.79745897 l 2.24896,-0.134415 -2.64584,0.495794 -2.64583,0.49579497 2.77812,-0.116788 c 1.52797,-0.06423 5.21891,-0.25163297 8.20209,-0.41644397 9.70792,-0.536332 18.71188,-0.452519 24.73854,0.23027597 16.78241,1.901376 33.65833,4.796485 39.6421,6.800707 4.58452,1.535552 18.1526,7.1980993 19.68437,8.2151393 3.46871,2.303092 7.58411,6.941353 10.51168,11.847178 1.42507,2.388044 4.53014,9.268325 5.64017,12.497625 1.40105,4.075851 2.37242,9.660856 2.09288,12.033148 -0.1479,1.255127 -2.03999,6.39831 -3.16949,8.615471 -0.67141,1.317945 -8.19338,10.882038 -11.32131,14.394924 -4.32837,4.861052 -9.33262,7.586597 -16.94589,9.229511 -1.36304,0.29414 -5.87154,1.023281 -10.01888,1.620316 -8.93917,1.286844 -13.16049,2.169999 -30.53439,6.388201 -11.47041,2.784893 -10.63088,2.680724 -25.2927,3.138369 -6.46763,0.201877 -8.41732,0.356978 -11.37708,0.905068 -7.11699,1.317929 -11.91158,1.752438 -25.13542,2.277888 -9.0918,0.361264 -12.70117,0.634529 -20.90208,1.582484 -7.58018,0.87621 -16.231704,1.70625 -21.96042,2.10693 -3.458012,0.24186 -22.597849,0.31859 -24.870834,0.0997 z"
     id="path42"
     inkscape:connector-curvature="0" />
</svg>
