<svg xmlns="http://www.w3.org/2000/svg" preserveAspectRatio="none" width="91.753" height="58.121"><path d="M7.082 57.123c-1.24-1.712-1.453-2.668-1.259-5.637.162-2.465.107-2.899-.908-7.162a332.025 332.025 0 01-1.603-7.051C2.788 34.756-.197 5.911.01 5.365c.137-.36-1.026-.275 32.173-2.35 15.207-.95 29.732-1.91 32.279-2.133 8.39-.734 12.647-.954 16.735-.863 3.903.087 4.108.12 6.281 1.011 2.606 1.069 2.698 1.197 3.49 4.846.424 1.958.56 3.93.706 10.23.213 9.22.003 14.214-.708 16.801-.28 1.019-1.244 4.174-2.142 7.012-.898 2.838-1.865 6.508-2.148 8.156-.414 2.404-.74 3.426-1.642 5.16-1.59 3.054-2.003 3.235-6.187 2.702-1.727-.22-7.843-.843-13.591-1.386-10.115-.956-10.8-.987-21.3-.983-14.26.006-20.707.7-30.71 3.302a419.632 419.632 0 01-4.788 1.228c-.444.101-.757-.12-1.376-.975z" fill="#ed2123"/></svg>