<svg xmlns="http://www.w3.org/2000/svg" width="1021" height="389" viewBox="0 0 270.14 102.923" preserveAspectRatio="none"><path d="M68.479 102.794c-.51-.05-2.295-.215-3.969-.37-9.047-.832-16.66-2.424-26.061-5.447-1.601-.514-5.707-1.703-9.124-2.64-8.753-2.402-11.46-3.676-14.707-6.923-3.912-3.912-8.65-12.969-12.279-23.472C.709 59.226.215 56.918.043 53.226c-.193-4.144.23-6.748 1.893-11.642 2.148-6.322 5.971-13.388 10.499-19.4 2.545-3.38 7.874-8.519 10.975-10.583 4.882-3.25 7.957-4.274 21.124-7.036 16.008-3.357 15.647-3.33 44.715-3.33 20.035 0 25.176.079 32.411.496 10.575.61 18.316.488 28.575-.447 4.002-.364 8.288-.723 9.525-.797l2.25-.135-2.647.496-2.646.496 2.779-.117c1.528-.064 5.218-.251 8.202-.416 9.708-.536 18.712-.453 24.738.23 16.783 1.901 33.658 4.797 39.642 6.8 4.585 1.536 18.153 7.199 19.685 8.216 3.468 2.303 7.584 6.941 10.511 11.847 1.425 2.388 4.53 9.268 5.64 12.498 1.402 4.076 2.373 9.66 2.093 12.033-.148 1.255-2.04 6.398-3.17 8.615-.67 1.318-8.193 10.882-11.32 14.395-4.329 4.861-9.333 7.587-16.946 9.23-1.363.294-5.872 1.023-10.02 1.62-8.938 1.287-13.16 2.17-30.534 6.388-11.47 2.785-10.63 2.681-25.292 3.139-6.468.202-8.418.357-11.377.905-7.117 1.318-11.912 1.752-25.136 2.278-9.092.36-12.701.634-20.902 1.582-7.58.876-16.232 1.706-21.96 2.107-3.458.242-22.598.319-24.871.1z" fill="#ed2123"/></svg>