<svg xmlns="http://www.w3.org/2000/svg" width="427.087" height="63mm" viewBox="0 0 113 63" preserveAspectRatio="none"><path d="M45.534 62.756c-12.673-.868-26.424-2.8-32.563-4.573-4.864-1.405-8.907-3.631-10.553-5.81-.416-.552-.84-1.062-.943-1.134-.102-.073-.507-2.61-.9-5.638-.823-6.35-.779-8.635.237-12.325.626-2.275 3.454-9.962 5.161-14.03 1.994-4.752 4.978-9.332 8.408-12.908C17.734 2.84 20.246 1.567 25.726.58 28.443.09 29.853.025 38.15.002c15.305-.042 20.64.573 44.033 5.075 3.842.74 9.086 1.748 11.653 2.241 6.858 1.318 9.509 2.464 12.558 5.428 2.596 2.523 4.27 5.425 5.714 9.91 1.2 3.727 1.187 9.872-.036 15.602-.215 1.01-.497 4.196-.626 7.08-.142 3.182-.398 5.864-.65 6.818-1.1 4.175-4.74 6.964-10.593 8.118-1.91.377-14.264 1.454-27.249 2.377-5.803.412-22.036.475-27.421.105z" fill="#ed2123"/></svg>