<svg xmlns="http://www.w3.org/2000/svg" width="1103" height="359" viewBox="0 0 291.835 94.985" preserveAspectRatio="none"><path d="M245.896 94.452c-15.479-1.815-29.215-4.87-42.334-9.414-19.567-6.779-23.587-7.842-34.396-9.1-14.208-1.655-31.586-1.288-75.935 1.602-27.569 1.796-40.508 1.726-52.52-.286-7.626-1.278-14.976-3.609-20.982-6.655-5.291-2.684-9.098-5.396-13.428-9.568-2.098-2.021-2.418-2.475-4.051-5.742C.152 51.092-.16 49.722.06 45.656c.266-4.944 1.314-10.493 3.393-17.968l1.097-3.945 2.14-2.162c3.63-3.668 4.301-3.919 23.041-8.588 5.82-1.45 12.37-3.118 14.552-3.706C54.03 6.664 62.056 5.56 75.207 5.03c7.804-.314 11.035-.151 29.004 1.464 11.959 1.075 21.698 1.57 24.12 1.226.922-.132 4.356-1.079 7.63-2.105 6.516-2.042 7.803-2.3 13.494-2.699 2.11-.148 8.42-.68 14.023-1.181 20.946-1.876 30.094-1.873 48.419.016 20.517 2.115 35.387 4.919 44.847 8.455 16.851 6.3 29.516 20.056 33.86 36.777 1.847 7.108 1.215 13.58-1.906 19.501-3.977 7.548-19.349 22.916-26.545 26.54-4.147 2.089-7.85 2.414-16.257 1.429z" fill="#ed2123"/></svg>